<?xml version="1.0" standalone="no"?>
<!DOCTYPE svg PUBLIC "-//W3C//DTD SVG 20010904//EN"
 "http://www.w3.org/TR/2001/REC-SVG-20010904/DTD/svg10.dtd">
<svg version="1.0" xmlns="http://www.w3.org/2000/svg"
 width="700.000000pt" height="700.000000pt" viewBox="0 0 700.000000 700.000000"
 preserveAspectRatio="xMidYMid meet">
<metadata>
Created by potrace 1.14, written by Peter Selinger 2001-2017
</metadata>
<g transform="translate(0.000000,700.000000) scale(0.100000,-0.100000)"
fill="#000000" stroke="none">
<path d="M3263 6990 c-554 -41 -1090 -209 -1553 -488 -258 -154 -471 -321
-685 -536 -850 -852 -1200 -2068 -934 -3246 38 -165 129 -444 198 -605 279
-647 762 -1207 1371 -1587 446 -278 947 -448 1500 -509 147 -16 531 -16 680 0
826 89 1553 434 2130 1011 537 536 881 1220 989 1965 119 814 -56 1656 -487
2345 -527 842 -1384 1428 -2342 1600 -265 47 -621 68 -867 50z m507 -330 c425
-39 821 -154 1184 -343 731 -382 1283 -1022 1546 -1792 127 -372 179 -723 167
-1119 -4 -111 -13 -253 -22 -316 -96 -701 -408 -1333 -905 -1830 -760 -760
-1832 -1080 -2890 -864 -435 89 -882 292 -1245 564 -294 220 -550 492 -751
795 -466 706 -629 1560 -458 2395 88 428 283 862 551 1228 530 724 1366 1197
2263 1280 136 13 426 14 560 2z"/>
<path d="M3130 6304 c-487 -62 -961 -264 -1349 -573 -244 -194 -446 -469 -530
-718 -30 -88 -28 -128 8 -164 24 -24 38 -29 77 -29 l47 0 266 263 c349 344
487 458 740 611 319 193 744 352 1156 432 104 21 135 43 135 98 0 89 -21 96
-257 95 -103 -1 -235 -7 -293 -15z"/>
<path d="M3905 5299 c-4 -13 -54 -273 -89 -462 -7 -43 -16 -80 -18 -82 -3 -3
-308 -132 -481 -203 -21 -8 -36 -20 -34 -25 1 -5 113 -69 247 -142 l245 -134
21 -268 c12 -147 23 -278 25 -290 3 -19 36 8 213 178 188 181 211 200 235 194
105 -27 498 -115 513 -115 10 0 18 2 18 5 0 6 -111 246 -178 383 l-60 123 87
142 c107 174 201 334 201 341 0 11 -62 6 -259 -18 -273 -34 -273 -34 -299 -23
-13 6 -97 94 -187 197 -185 211 -193 218 -200 199z"/>
<path d="M1058 4559 c-26 -14 -94 -119 -128 -194 -89 -198 -96 -364 -19 -430
90 -75 195 19 233 210 20 100 46 287 46 338 0 68 -74 110 -132 76z"/>
<path d="M2125 4088 c-6 -25 -105 -520 -105 -525 0 -6 -78 -42 -290 -130 -124
-52 -228 -97 -232 -101 -4 -4 96 -63 222 -132 127 -69 239 -132 250 -140 19
-14 23 -38 40 -235 11 -121 23 -250 27 -287 l8 -68 210 200 c184 176 213 200
235 194 24 -6 461 -108 508 -119 31 -8 32 -11 -100 278 l-110 238 99 167 c154
258 185 313 179 319 -6 6 -236 -18 -414 -43 -82 -12 -120 -14 -137 -6 -12 6
-102 101 -200 211 -97 111 -178 201 -181 201 -2 0 -6 -10 -9 -22z"/>
<path d="M6178 3265 c-32 -18 -63 -81 -213 -440 -147 -352 -159 -378 -243
-528 -160 -284 -330 -512 -619 -825 -107 -116 -117 -137 -91 -185 34 -65 85
-63 203 7 385 230 716 587 934 1006 85 164 133 285 168 428 24 95 27 126 28
282 0 128 -4 184 -14 208 -24 56 -95 78 -153 47z"/>
<path d="M3851 2995 c-23 -121 -47 -248 -54 -283 l-12 -63 -265 -110 c-146
-61 -266 -112 -267 -113 -1 -1 109 -62 243 -136 135 -74 249 -141 254 -150 4
-8 18 -132 30 -275 12 -143 24 -266 26 -273 6 -21 40 8 240 197 98 94 185 171
192 171 7 0 70 -14 140 -30 166 -40 389 -90 402 -90 13 0 9 11 -120 280 -106
223 -111 236 -98 260 8 14 75 123 148 243 73 120 130 220 128 223 -3 2 -117
-9 -254 -26 -137 -16 -265 -30 -284 -30 -33 0 -43 10 -152 138 -64 75 -148
171 -186 212 l-69 75 -42 -220z"/>
</g>
</svg>
