<?xml version="1.0" encoding="UTF-8" standalone="no"?>
<svg
   xmlns:dc="http://purl.org/dc/elements/1.1/"
   xmlns:cc="http://creativecommons.org/ns#"
   xmlns:rdf="http://www.w3.org/1999/02/22-rdf-syntax-ns#"
   xmlns:svg="http://www.w3.org/2000/svg"
   xmlns="http://www.w3.org/2000/svg"
   xmlns:sodipodi="http://sodipodi.sourceforge.net/DTD/sodipodi-0.dtd"
   xmlns:inkscape="http://www.inkscape.org/namespaces/inkscape"
   width="560pt"
   height="560pt"
   version="1.1"
   viewBox="0 0 560 560"
   id="svg3277"
   sodipodi:docname="bola-5.svg"
   inkscape:version="0.92.5 (2060ec1f9f, 2020-04-08)">
  <metadata
     id="metadata3281">
    <rdf:RDF>
      <cc:Work
         rdf:about="">
        <dc:format>image/svg+xml</dc:format>
        <dc:type
           rdf:resource="http://purl.org/dc/dcmitype/StillImage" />
        <dc:title></dc:title>
      </cc:Work>
    </rdf:RDF>
  </metadata>
  <sodipodi:namedview
     pagecolor="#ffffff"
     bordercolor="#666666"
     borderopacity="1"
     objecttolerance="10"
     gridtolerance="10"
     guidetolerance="10"
     inkscape:pageopacity="0"
     inkscape:pageshadow="2"
     inkscape:window-width="1920"
     inkscape:window-height="1031"
     id="namedview3279"
     showgrid="false"
     fit-margin-top="0"
     fit-margin-left="0"
     fit-margin-right="0"
     fit-margin-bottom="0"
     inkscape:zoom="0.91071429"
     inkscape:cx="370.04695"
     inkscape:cy="279.99598"
     inkscape:window-x="0"
     inkscape:window-y="25"
     inkscape:window-maximized="1"
     inkscape:current-layer="svg3277" />
  <defs
     id="defs3187">
    <symbol
       id="v"
       overflow="visible"
       style="overflow:visible">
      <path
         d="m 18.766,-1.125 c -0.96875,0.5 -1.9805,0.875 -3.0312,1.125 -1.043,0.25781 -2.1367,0.39062 -3.2812,0.39062 -3.3984,0 -6.0898,-0.94531 -8.0781,-2.8438 -1.9922,-1.9062 -2.9844,-4.4844 -2.9844,-7.7344 0,-3.2578 0.99219,-5.8359 2.9844,-7.7344 1.9883,-1.9062 4.6797,-2.8594 8.0781,-2.8594 1.1445,0 2.2383,0.13281 3.2812,0.39062 1.0508,0.25 2.0625,0.625 3.0312,1.125 v 4.2188 c -0.98047,-0.65625 -1.9453,-1.1406 -2.8906,-1.4531 -0.94922,-0.3125 -1.9492,-0.46875 -3,-0.46875 -1.875,0 -3.3516,0.60547 -4.4219,1.8125 -1.0742,1.1992 -1.6094,2.8555 -1.6094,4.9688 0,2.1055 0.53516,3.7617 1.6094,4.9688 1.0703,1.1992 2.5469,1.7969 4.4219,1.7969 1.0508,0 2.0508,-0.14844 3,-0.45312 0.94531,-0.3125 1.9102,-0.80078 2.8906,-1.4688 z"
         id="path3121"
         inkscape:connector-curvature="0" />
    </symbol>
    <symbol
       id="d"
       overflow="visible"
       style="overflow:visible">
      <path
         d="m 13.734,-11.141 c -0.4375,-0.19531 -0.87109,-0.34375 -1.2969,-0.4375 -0.41797,-0.10156 -0.83984,-0.15625 -1.2656,-0.15625 -1.2617,0 -2.2305,0.40625 -2.9062,1.2188 -0.67969,0.80469 -1.0156,1.9531 -1.0156,3.4531 v 7.0625 H 2.3591 v -15.312 h 4.8906 v 2.5156 c 0.625,-1 1.3438,-1.7266 2.1562,-2.1875 0.82031,-0.46875 1.8008,-0.70312 2.9375,-0.70312 0.16406,0 0.34375,0.01172 0.53125,0.03125 0.19531,0.01172 0.47656,0.03906 0.84375,0.07813 z"
         id="path3124"
         inkscape:connector-curvature="0" />
    </symbol>
    <symbol
       id="a"
       overflow="visible"
       style="overflow:visible">
      <path
         d="m 17.641,-7.7031 v 1.4062 H 6.188 c 0.125,1.1484 0.53906,2.0078 1.25,2.5781 0.70703,0.57422 1.7031,0.85938 2.9844,0.85938 1.0312,0 2.082,-0.14844 3.1562,-0.45312 1.082,-0.3125 2.1914,-0.77344 3.3281,-1.3906 v 3.7656 c -1.1562,0.4375 -2.3125,0.76562 -3.4688,0.98438 -1.1562,0.22656 -2.3125,0.34375 -3.4688,0.34375 -2.7734,0 -4.9297,-0.70312 -6.4688,-2.1094 -1.5312,-1.4062 -2.2969,-3.3789 -2.2969,-5.9219 0,-2.5 0.75391,-4.4609 2.2656,-5.8906 1.5078,-1.4375 3.582,-2.1562 6.2188,-2.1562 2.4062,0 4.332,0.73047 5.7812,2.1875 1.4453,1.4492 2.1719,3.3828 2.1719,5.7969 z m -5.0312,-1.625 c 0,-0.92578 -0.27344,-1.6719 -0.8125,-2.2344 -0.54297,-0.57031 -1.25,-0.85938 -2.125,-0.85938 -0.94922,0 -1.7188,0.26562 -2.3125,0.79688 -0.5937,0.53126 -0.96484,1.2969 -1.1094,2.2969 z"
         id="path3127"
         inkscape:connector-curvature="0" />
    </symbol>
    <symbol
       id="g"
       overflow="visible"
       style="overflow:visible">
      <path
         d="m 9.2188,-6.8906 c -1.0234,0 -1.793,0.17188 -2.3125,0.51562 -0.51172,0.34375 -0.76562,0.85547 -0.76562,1.5312 0,0.625 0.20703,1.1172 0.625,1.4688 0.41406,0.34375 0.98828,0.51562 1.7188,0.51562 0.92578,0 1.7031,-0.32812 2.3281,-0.98438 0.63281,-0.66406 0.95312,-1.4922 0.95312,-2.4844 v -0.5625 z m 7.4688,-1.8438 V 0 h -4.9219 v -2.2656 c -0.65625,0.92969 -1.3984,1.6055 -2.2188,2.0312 -0.82422,0.41406 -1.8242,0.625 -3,0.625 -1.5859,0 -2.8711,-0.45703 -3.8594,-1.375 -0.99219,-0.92578 -1.4844,-2.1289 -1.4844,-3.6094 0,-1.7891 0.61328,-3.1016 1.8438,-3.9375 1.2383,-0.84375 3.1797,-1.2656 5.8281,-1.2656 h 2.8906 v -0.39062 c 0,-0.76953 -0.30859,-1.332 -0.92188,-1.6875 -0.61719,-0.36328 -1.5703,-0.54688 -2.8594,-0.54688 -1.0547,0 -2.0312,0.10547 -2.9375,0.3125 -0.89844,0.21094 -1.7305,0.52344 -2.5,0.9375 v -3.7344 c 1.0391,-0.25 2.0859,-0.44141 3.1406,-0.57812 1.0625,-0.13281 2.125,-0.20312 3.1875,-0.20312 2.7578,0 4.75,0.54688 5.9688,1.6406 1.2266,1.0859 1.8438,2.8555 1.8438,5.3125 z"
         id="path3130"
         inkscape:connector-curvature="0" />
    </symbol>
    <symbol
       id="c"
       overflow="visible"
       style="overflow:visible">
      <path
         d="m 7.7031,-19.656 v 4.3438 H 12.75 v 3.5 H 7.7031 v 6.5 c 0,0.71094 0.14062,1.1875 0.42188,1.4375 0.28126,0.25 0.83594,0.375 1.6719,0.375 h 2.5156 v 3.5 h -4.1875 c -1.9375,0 -3.3125,-0.39844 -4.125,-1.2031 -0.80469,-0.8125 -1.2031,-2.1797 -1.2031,-4.1094 v -6.5 h -2.4219 v -3.5 h 2.4219 v -4.3438 z"
         id="path3133"
         inkscape:connector-curvature="0" />
    </symbol>
    <symbol
       id="f"
       overflow="visible"
       style="overflow:visible">
      <path
         d="m 12.766,-13.078 v -8.2031 h 4.9219 V -10e-5 H 12.766 v -2.2188 c -0.66797,0.90625 -1.4062,1.5703 -2.2188,1.9844 -0.8126,0.4141 -1.7578,0.625 -2.8281,0.625 -1.8867,0 -3.4336,-0.75 -4.6406,-2.25 -1.2109,-1.5 -1.8125,-3.4258 -1.8125,-5.7812 0,-2.3633 0.60156,-4.2969 1.8125,-5.7969 1.207,-1.5 2.7539,-2.25 4.6406,-2.25 1.0625,0 2,0.21484 2.8125,0.64062 0.82031,0.42969 1.5664,1.0859 2.2344,1.9688 z m -3.2188,9.9219 c 1.0391,0 1.8359,-0.37891 2.3906,-1.1406 0.55078,-0.76953 0.82812,-1.8828 0.82812,-3.3438 0,-1.457 -0.27734,-2.5664 -0.82812,-3.3281 -0.55469,-0.76953 -1.3516,-1.1562 -2.3906,-1.1562 -1.043,0 -1.8398,0.38672 -2.3906,1.1562 -0.55469,0.76172 -0.82812,1.8711 -0.82812,3.3281 0,1.4609 0.27344,2.5742 0.82812,3.3438 0.55078,0.76172 1.3477,1.1406 2.3906,1.1406 z"
         id="path3136"
         inkscape:connector-curvature="0" />
    </symbol>
    <symbol
       id="j"
       overflow="visible"
       style="overflow:visible">
      <path
         d="m 10.5,-3.1562 c 1.0508,0 1.8516,-0.37891 2.4062,-1.1406 0.55078,-0.76953 0.82812,-1.8828 0.82812,-3.3438 0,-1.457 -0.27734,-2.5664 -0.82812,-3.3281 -0.55469,-0.76953 -1.3555,-1.1562 -2.4062,-1.1562 -1.0547,0 -1.8594,0.38672 -2.4219,1.1562 -0.55469,0.77344 -0.82812,1.8828 -0.82812,3.3281 0,1.4492 0.27344,2.5586 0.82812,3.3281 0.5625,0.77344 1.3672,1.1562 2.4219,1.1562 z m -3.25,-9.9219 c 0.67578,-0.88281 1.4219,-1.5391 2.2344,-1.9688 0.82031,-0.42578 1.7656,-0.64062 2.8281,-0.64062 1.8945,0 3.4453,0.75 4.6562,2.25 1.207,1.5 1.8125,3.4336 1.8125,5.7969 0,2.3555 -0.60547,4.2812 -1.8125,5.7812 -1.2109,1.5 -2.7617,2.25 -4.6562,2.25 -1.0625,0 -2.0078,-0.21094 -2.8281,-0.625 C 8.6719,-0.6602 7.9258,-1.32032 7.25,-2.21882 V -2e-5 H 2.3594 v -21.281 H 7.25 Z"
         id="path3139"
         inkscape:connector-curvature="0" />
    </symbol>
    <symbol
       id="e"
       overflow="visible"
       style="overflow:visible">
      <path
         d="m 0.34375,-15.312 h 4.8906 l 4.125,10.391 3.5,-10.391 h 4.8906 l -6.4375,16.766 c -0.64844,1.6953 -1.4023,2.8828 -2.2656,3.5625 -0.86719,0.6875 -2,1.0312 -3.4062,1.0312 H 2.79685 V 2.8289 h 1.5312 c 0.83203,0 1.4375,-0.13672 1.8125,-0.40625 C 6.52336,2.16093 6.82024,1.69218 7.03117,1.01645 L 7.17179,0.59457 Z"
         id="path3142"
         inkscape:connector-curvature="0" />
    </symbol>
    <symbol
       id="i"
       overflow="visible"
       style="overflow:visible">
      <path
         d="m 0.14062,-20.406 h 18.812 v 3.9688 h -6.7656 V 8e-4 h -5.2656 v -16.438 h -6.7812 z"
         id="path3145"
         inkscape:connector-curvature="0" />
    </symbol>
    <symbol
       id="h"
       overflow="visible"
       style="overflow:visible">
      <path
         d="M 17.75,-9.3281 V 0 h -4.9219 v -7.1094 c 0,-1.3438 -0.03125,-2.2656 -0.09375,-2.7656 -0.0625,-0.5 -0.16797,-0.86719 -0.3125,-1.1094 -0.1875,-0.3125 -0.44922,-0.55469 -0.78125,-0.73438 -0.32422,-0.17578 -0.69531,-0.26562 -1.1094,-0.26562 -1.0234,0 -1.8242,0.39844 -2.4062,1.1875 -0.58594,0.78125 -0.875,1.8711 -0.875,3.2656 V -1e-4 H 2.3594 v -21.281 H 7.25 v 8.2031 c 0.73828,-0.88281 1.5195,-1.5391 2.3438,-1.9688 0.83203,-0.42578 1.75,-0.64062 2.75,-0.64062 1.7695,0 3.1133,0.54688 4.0312,1.6406 0.91406,1.0859 1.375,2.6562 1.375,4.7188 z"
         id="path3148"
         inkscape:connector-curvature="0" />
    </symbol>
    <symbol
       id="u"
       overflow="visible"
       style="overflow:visible">
      <path
         d="m 14.312,-14.828 v 3.7188 c -1.043,-0.4375 -2.0547,-0.76562 -3.0312,-0.98438 -0.98047,-0.21875 -1.9023,-0.32812 -2.7656,-0.32812 -0.92969,0 -1.6211,0.11719 -2.0781,0.34375 -0.44922,0.23047 -0.67188,0.58984 -0.67188,1.0781 0,0.38672 0.17188,0.68359 0.51562,0.89062 0.34375,0.21094 0.95703,0.36719 1.8438,0.46875 l 0.85938,0.125 c 2.5078,0.32422 4.1953,0.85156 5.0625,1.5781 0.86328,0.73047 1.2969,1.8711 1.2969,3.4219 0,1.6367 -0.60547,2.8672 -1.8125,3.6875 -1.1992,0.8125 -2.9922,1.2188 -5.375,1.2188 -1.0234,0 -2.0742,-0.078125 -3.1562,-0.23438 -1.0742,-0.15625 -2.1797,-0.39453 -3.3125,-0.71875 v -3.7188 c 0.96875,0.48047 1.9609,0.83984 2.9844,1.0781 1.0312,0.23047 2.0781,0.34375 3.1406,0.34375 0.95703,0 1.6758,-0.12891 2.1562,-0.39062 0.47656,-0.26953 0.71875,-0.66406 0.71875,-1.1875 0,-0.4375 -0.16797,-0.75781 -0.5,-0.96875 -0.33594,-0.21875 -0.99609,-0.38281 -1.9844,-0.5 L 7.34339,-6.01551 c -2.1797,-0.26953 -3.7031,-0.77344 -4.5781,-1.5156 -0.875,-0.73828 -1.3125,-1.8594 -1.3125,-3.3594 0,-1.625 0.55078,-2.8281 1.6562,-3.6094 1.1133,-0.78906 2.8203,-1.1875 5.125,-1.1875 0.89453,0 1.8359,0.07422 2.8281,0.21875 1,0.13672 2.082,0.35156 3.25,0.64062 z"
         id="path3151"
         inkscape:connector-curvature="0" />
    </symbol>
    <symbol
       id="t"
       overflow="visible"
       style="overflow:visible">
      <path
         d="m 16.781,-19.766 v 4.3125 c -1.125,-0.5 -2.2266,-0.875 -3.2969,-1.125 -1.0625,-0.25781 -2.0703,-0.39062 -3.0156,-0.39062 -1.25,0 -2.1797,0.17969 -2.7812,0.53125 -0.60547,0.34375 -0.90625,0.88281 -0.90625,1.6094 0,0.54297 0.20312,0.96875 0.60938,1.2812 0.40625,0.30469 1.1406,0.5625 2.2031,0.78125 l 2.25,0.45312 c 2.2695,0.44922 3.8789,1.1406 4.8281,2.0781 0.95703,0.92969 1.4375,2.2461 1.4375,3.9531 0,2.25 -0.66797,3.9297 -2,5.0312 -1.3359,1.0938 -3.3711,1.6406 -6.1094,1.6406 -1.3047,0 -2.6055,-0.125 -3.9062,-0.375 -1.3047,-0.23828 -2.6055,-0.59766 -3.9062,-1.0781 v -4.4531 c 1.3008,0.69922 2.5625,1.2266 3.7812,1.5781 1.2188,0.34375 2.3906,0.51562 3.5156,0.51562 1.1562,0 2.0352,-0.1875 2.6406,-0.5625 0.61328,-0.38281 0.92188,-0.9375 0.92188,-1.6562 0,-0.63281 -0.21094,-1.125 -0.625,-1.4688 -0.41797,-0.34375 -1.2461,-0.65625 -2.4844,-0.9375 l -2.0312,-0.4375 c -2.043,-0.4375 -3.5391,-1.1328 -4.4844,-2.0938 -0.9375,-0.95703 -1.4062,-2.25 -1.4062,-3.875 0,-2.0312 0.65625,-3.5938 1.9688,-4.6875 1.31255,-1.0937 3.1953,-1.6406 5.6562,-1.6406 1.125,0 2.2734,0.08594 3.4531,0.25 1.1875,0.16797 2.4141,0.42188 3.6875,0.76562 z"
         id="path3154"
         inkscape:connector-curvature="0" />
    </symbol>
    <symbol
       id="b"
       overflow="visible"
       style="overflow:visible">
      <path
         d="m 9.6406,-12.188 c -1.0859,0 -1.9141,0.39062 -2.4844,1.1719 -0.57422,0.78125 -0.85938,1.9062 -0.85938,3.375 0,1.4688 0.28516,2.5938 0.85938,3.375 0.57031,0.77344 1.3984,1.1562 2.4844,1.1562 1.0625,0 1.875,-0.38281 2.4375,-1.1562 0.57031,-0.78125 0.85938,-1.9062 0.85938,-3.375 0,-1.4688 -0.28906,-2.5938 -0.85938,-3.375 -0.5625,-0.78125 -1.375,-1.1719 -2.4375,-1.1719 z m 0,-3.5 c 2.6328,0 4.6914,0.71484 6.1719,2.1406 1.4766,1.418 2.2188,3.3867 2.2188,5.9062 0,2.5117 -0.74219,4.4805 -2.2188,5.9062 C 14.332,-0.317 12.2734,0.39 9.6406,0.39 6.9922,0.39 4.9258,-0.31703 3.4375,-1.735 1.9453,-3.1608 1.2031,-5.1295 1.2031,-7.6412 c 0,-2.5195 0.74219,-4.4883 2.2344,-5.9062 1.4883,-1.4258 3.5547,-2.1406 6.2031,-2.1406 z"
         id="path3157"
         inkscape:connector-curvature="0" />
    </symbol>
    <symbol
       id="s"
       overflow="visible"
       style="overflow:visible">
      <path
         d="M 2.3594,-21.281 H 7.25 V 0 H 2.3594 Z"
         id="path3160"
         inkscape:connector-curvature="0" />
    </symbol>
    <symbol
       id="r"
       overflow="visible"
       style="overflow:visible">
      <path
         d="m 12.422,-21.281 v 3.2188 H 9.7189 c -0.6875,0 -1.1719,0.125 -1.4531,0.375 -0.27344,0.25 -0.40625,0.6875 -0.40625,1.3125 v 1.0625 h 4.1875 v 3.5 H 7.85955 V -2e-4 h -4.8906 v -11.812 h -2.4375 v -3.5 h 2.4375 v -1.0625 c 0,-1.6641 0.46094,-2.8984 1.3906,-3.7031 0.92578,-0.80078 2.3672,-1.2031 4.3281,-1.2031 z"
         id="path3163"
         inkscape:connector-curvature="0" />
    </symbol>
    <symbol
       id="q"
       overflow="visible"
       style="overflow:visible">
      <path
         d="m 16.547,-12.766 c 0.61328,-0.94531 1.3477,-1.6719 2.2031,-2.1719 0.85156,-0.5 1.7891,-0.75 2.8125,-0.75 1.7578,0 3.0977,0.54688 4.0156,1.6406 0.92578,1.0859 1.3906,2.6562 1.3906,4.7188 V -4e-4 h -4.9219 v -7.9844 -0.35938 c 0.0078,-0.13281 0.01563,-0.32031 0.01563,-0.5625 0,-1.082 -0.16406,-1.8633 -0.48438,-2.3438 -0.3125,-0.48828 -0.82422,-0.73438 -1.5312,-0.73438 -0.92969,0 -1.6484,0.38672 -2.1562,1.1562 -0.51172,0.76172 -0.77344,1.8672 -0.78125,3.3125 v 7.5156 h -4.9219 v -7.9844 c 0,-1.6953 -0.14844,-2.7852 -0.4375,-3.2656 -0.29297,-0.48828 -0.8125,-0.73438 -1.5625,-0.73438 -0.9375,0 -1.6641,0.38672 -2.1719,1.1562 -0.51172,0.76172 -0.76562,1.8594 -0.76562,3.2969 v 7.5312 h -4.9219 v -15.312 h 4.9219 v 2.2344 c 0.60156,-0.86328 1.2891,-1.5156 2.0625,-1.9531 0.78125,-0.4375 1.6406,-0.65625 2.5781,-0.65625 1.0625,0 2,0.25781 2.8125,0.76562 0.8125,0.51172 1.4258,1.2305 1.8438,2.1562 z"
         id="path3166"
         inkscape:connector-curvature="0" />
    </symbol>
    <symbol
       id="p"
       overflow="visible"
       style="overflow:visible">
      <path
         d="m 2.5781,-20.406 h 5.875 l 7.4219,14 v -14 h 4.9844 V 0 h -5.875 L 7.5625,-14 V 0 H 2.5781 Z"
         id="path3169"
         inkscape:connector-curvature="0" />
    </symbol>
    <symbol
       id="o"
       overflow="visible"
       style="overflow:visible">
      <path
         d="m 2.1875,-5.9688 v -9.3438 h 4.9219 v 1.5312 c 0,0.83594 -0.00781,1.875 -0.015625,3.125 -0.011719,1.25 -0.015625,2.0859 -0.015625,2.5 0,1.2422 0.03125,2.1328 0.09375,2.6719 0.070313,0.54297 0.17969,0.93359 0.32812,1.1719 0.20703,0.32422 0.47266,0.57422 0.79688,0.75 0.32031,0.16797 0.69141,0.25 1.1094,0.25 1.0195,0 1.8203,-0.39062 2.4062,-1.1719 0.58203,-0.78125 0.875,-1.8672 0.875,-3.2656 v -7.5625 h 4.8906 V -6e-4 H 12.6875 V -2.2194 C 11.94531,-1.32096 11.1641,-0.6608 10.3437,-0.235 9.51948,0.17906 8.6093,0.39 7.6093,0.39 5.8476,0.39 4.5038,-0.14906 3.5781,-1.235 2.64841,-2.317 2.1875,-3.8952 2.1875,-5.9694 Z"
         id="path3172"
         inkscape:connector-curvature="0" />
    </symbol>
    <symbol
       id="n"
       overflow="visible"
       style="overflow:visible">
      <path
         d="M 17.75,-9.3281 V 0 h -4.9219 v -7.1406 c 0,-1.3203 -0.03125,-2.2344 -0.09375,-2.7344 -0.0625,-0.5 -0.16797,-0.86719 -0.3125,-1.1094 -0.1875,-0.3125 -0.44922,-0.55469 -0.78125,-0.73438 -0.32422,-0.17578 -0.69531,-0.26562 -1.1094,-0.26562 -1.0234,0 -1.8242,0.39844 -2.4062,1.1875 -0.58594,0.78125 -0.875,1.8711 -0.875,3.2656 V -1e-4 H 2.3594 v -15.312 H 7.25 v 2.2344 c 0.73828,-0.88281 1.5195,-1.5391 2.3438,-1.9688 0.83203,-0.42578 1.75,-0.64062 2.75,-0.64062 1.7695,0 3.1133,0.54688 4.0312,1.6406 0.91406,1.0859 1.375,2.6562 1.375,4.7188 z"
         id="path3175"
         inkscape:connector-curvature="0" />
    </symbol>
    <symbol
       id="m"
       overflow="visible"
       style="overflow:visible">
      <path
         d="m 2.5781,-20.406 h 8.7344 c 2.5938,0 4.582,0.57812 5.9688,1.7344 1.3945,1.1484 2.0938,2.7891 2.0938,4.9219 0,2.1367 -0.69922,3.7812 -2.0938,4.9375 -1.3867,1.1562 -3.375,1.7344 -5.9688,1.7344 H 7.8281 V 3e-4 h -5.25 z m 5.25,3.8125 v 5.7031 H 10.75 c 1.0195,0 1.8047,-0.25 2.3594,-0.75 0.5625,-0.5 0.84375,-1.2031 0.84375,-2.1094 0,-0.91406 -0.28125,-1.6172 -0.84375,-2.1094 -0.55469,-0.48828 -1.3398,-0.73438 -2.3594,-0.73438 z"
         id="path3178"
         inkscape:connector-curvature="0" />
    </symbol>
    <symbol
       id="l"
       overflow="visible"
       style="overflow:visible">
      <path
         d="M 2.3594,-15.312 H 7.25 v 15.031 c 0,2.0508 -0.49609,3.6172 -1.4844,4.7031 -0.98047,1.082 -2.4062,1.625 -4.2812,1.625 H -0.9375 V 2.8283 h 0.85938 c 0.92578,0 1.5625,-0.21094 1.9062,-0.625 0.35156,-0.41797 0.53125,-1.2461 0.53125,-2.4844 z m 0,-5.9688 H 7.25 v 4 H 2.3594 Z"
         id="path3181"
         inkscape:connector-curvature="0" />
    </symbol>
    <symbol
       id="k"
       overflow="visible"
       style="overflow:visible">
      <path
         d="m 14.719,-14.828 v 3.9844 c -0.65625,-0.45703 -1.3242,-0.79688 -2,-1.0156 -0.66797,-0.21875 -1.3594,-0.32812 -2.0781,-0.32812 -1.3672,0 -2.4336,0.40234 -3.2031,1.2031 -0.76172,0.79297 -1.1406,1.9062 -1.1406,3.3438 0,1.4297 0.37891,2.543 1.1406,3.3438 0.76953,0.79297 1.8359,1.1875 3.2031,1.1875 0.75781,0 1.4844,-0.10938 2.1719,-0.32812 0.6875,-0.22656 1.3203,-0.56641 1.9062,-1.0156 v 4 c -0.76172,0.28125 -1.5391,0.48828 -2.3281,0.625 -0.78125,0.14453 -1.5742,0.21875 -2.375,0.21875 -2.7617,0 -4.9219,-0.70703 -6.4844,-2.125 -1.5547,-1.4141 -2.3281,-3.3828 -2.3281,-5.9062 0,-2.5312 0.77344,-4.5039 2.3281,-5.9219 1.5625,-1.4141 3.7227,-2.125 6.4844,-2.125 0.80078,0 1.5938,0.07422 2.375,0.21875 0.78125,0.13672 1.5547,0.35156 2.3281,0.64062 z"
         id="path3184"
         inkscape:connector-curvature="0" />
    </symbol>
  </defs>
  <ellipse
     style="fill:#ff6600;fill-opacity:1;stroke-width:0"
     id="path11944"
     cx="281.65286"
     cy="283.29712"
     rx="266"
     ry="263.52942" />
  <path
     inkscape:connector-curvature="0"
     id="path3189"
     d="M 280,560 C 125.61,560 0,434.39 0,280 0,125.61 125.61,0 280,0 434.39,0 560,125.61 560,280 560,434.39 434.39,560 280,560 Z M 280,26.36 C 140.14,26.36 26.36,140.15 26.36,280 26.36,419.85 140.15,533.64 280,533.64 419.85,533.64 533.64,419.85 533.64,280 533.64,140.15 419.85,26.36 280,26.36 Z M 98.472,163.716 c 5.2305,-18.801 16.559,-35.98 30.285,-50.02 6.8867,-7.0859 14.594,-13.301 22.559,-19.051 7.9961,-5.7188 16.246,-11.066 24.953,-15.539 17.289,-9.1562 35.707,-15.898 54.562,-20.109 18.84,-4.2109 38.148,-5.9258 57.148,-4.7305 4.082,0.25781 7.1797,3.7734 6.9219,7.8516 -0.21094,3.457 -2.7656,6.2031 -6.0156,6.8164 l -0.0664,0.01172 c -17.656,3.3047 -34.781,7.7266 -51.238,13.629 -16.441,5.9062 -32.188,13.266 -46.906,22.121 -7.2969,4.5312 -14.488,9.168 -21.246,14.379 -6.7891,5.1758 -13.125,10.848 -19.414,16.547 -12.641,11.508 -24.18,23.527 -37.094,36.664 -3.3477,3.4062 -8.8203,3.457 -12.23,0.10547 -2.3242,-2.2773 -3.0859,-5.5508 -2.2773,-8.4766 z m -27.207,80.148 c -1.4688,-2.2383 -2.1094,-4.3633 -2.6602,-6.4688 -0.38672,-2.1992 -0.44141,-4.4141 -0.26953,-6.5703 0.51562,-4.1992 1.7031,-8.2617 2.9453,-12.285 1.3047,-4.0078 2.9844,-7.9062 4.9062,-11.68 1.9766,-3.7578 4.2734,-7.3789 7.1523,-10.691 2.3398,-2.6875 6.6875,-2.9688 9.375,-0.63281 1.4297,1.2422 2.4883,2.9688 2.4883,4.7148 v 0.21094 c 0,4.1836 -0.51562,8.125 -0.97266,11.988 -0.44922,3.8633 -1.0859,7.668 -1.7695,11.406 -0.68359,3.7422 -1.3047,7.5 -2.3477,11.145 -0.51953,1.7812 -1.3281,3.5039 -2.4062,5.2461 -1.1367,1.8555 -2.3984,3.6914 -4.4531,5.4023 -3.4453,2.8672 -8.5586,2.3984 -11.426,-1.043 -0.19922,-0.23438 -0.39453,-0.48438 -0.5625,-0.74219 z m 436.22,60.988 c 2.5586,16.09 -0.0352,32.727 -5.168,48.027 -2.582,7.6992 -6.0312,15.055 -9.7344,22.238 -3.7422,7.1641 -7.6875,14.219 -12.27,20.848 -8.9805,13.371 -19.453,25.641 -31.121,36.512 -11.66,10.852 -24.516,20.332 -38.387,27.805 -3.6172,1.9492 -8.1133,0.58984 -10.062,-3.0195 -1.5742,-2.9297 -0.98438,-6.457 1.2422,-8.7305 l 0.0547,-0.0547 c 10.426,-10.602 20.238,-21.391 29.211,-32.711 8.9609,-11.316 17.074,-23.121 24.188,-35.402 3.4492,-6.2031 6.9258,-12.371 9.9219,-18.766 3.0312,-6.3906 5.6328,-12.93 8.3555,-19.414 5.4727,-13.059 10.473,-25.934 17.152,-39.844 2.1094,-4.375 7.3516,-6.2148 11.73,-4.1094 2.6836,1.2812 4.4062,3.7578 4.8594,6.4805 z"
     sodipodi:nodetypes="ssssssssssccccccccccccccccccccccccsscccccccccccccccccccccsccc" />
  <path
     style="fill:#aa0000;fill-opacity:1;stroke-width:0"
     d="m 223.9173,207.34871 c -2.17654,-12.7834 -4.02908,-23.28553 -4.11677,-23.33807 -0.0877,-0.0526 -9.42414,-4.10373 -20.74767,-9.00261 -11.32353,-4.89889 -20.88435,-9.16435 -21.24628,-9.4788 -0.36193,-0.31446 8.47122,-5.31923 19.62922,-11.12172 13.97058,-7.2651 20.48378,-11.08594 20.91838,-12.27135 0.3471,-0.94677 1.48226,-10.98609 2.52257,-22.30962 1.04031,-11.32353 2.18271,-21.144125 2.53867,-21.823535 0.49249,-0.940035 4.56318,2.661475 17.03046,15.067545 l 16.38326,16.30284 22.62209,-4.97931 c 12.44214,-2.73862 22.88362,-4.97931 23.20327,-4.97931 0.31964,0 -4.0526,9.26186 -9.71611,20.5819 -5.66351,11.32005 -10.29729,20.9908 -10.29729,21.49058 0,0.49978 5.22425,9.7931 11.60942,20.65181 6.38519,10.85873 11.48077,19.84114 11.32353,19.96093 -0.15723,0.11978 -10.47706,-1.32836 -22.93295,-3.2181 -16.71024,-2.53518 -22.95225,-3.20096 -23.81126,-2.53974 -0.64031,0.49288 -7.81073,8.40056 -15.93425,17.57262 -8.12353,9.17206 -14.82651,16.67647 -14.8955,16.67647 -0.069,0 -1.90625,-10.45913 -4.08279,-23.24253 z"
     id="path11391"
     inkscape:connector-curvature="0" />
  <path
     style="fill:#aa0000;fill-opacity:1;stroke-width:0"
     d="m 264.91844,353.04968 c -0.23185,-0.99626 -1.99796,-11.37862 -3.92469,-23.07192 l -3.50314,-21.26055 -2.94828,-1.48145 c -1.62156,-0.81481 -11.28652,-5.10082 -21.4777,-9.52449 -10.19117,-4.42366 -18.618,-8.11364 -18.72628,-8.19996 -0.10827,-0.0863 9.24909,-5.07222 20.79412,-11.0798 11.54504,-6.00756 20.98364,-11.16898 20.97466,-11.4698 -0.009,-0.30082 0.98251,-10.84955 2.2033,-23.44164 l 2.21964,-22.89469 6.23787,6.00729 c 3.43083,3.30402 11.05551,10.71879 16.94375,16.47728 l 10.70588,10.46997 22.48246,-5.00209 c 12.36534,-2.75114 22.67072,-4.81381 22.90082,-4.58371 0.23011,0.23011 -4.23845,9.7263 -9.93012,21.10264 l -10.3485,20.68427 11.63606,19.79515 c 6.39983,10.88733 11.41732,20.01388 11.15,20.28122 -0.39469,0.39469 -35.65023,-4.45781 -43.41077,-5.97497 -1.88279,-0.36809 -3.79014,1.48047 -17.83292,17.28323 -13.27273,14.9362 -15.79036,17.41294 -16.14616,15.88402 z"
     id="path11936"
     inkscape:connector-curvature="0" />
  <path
     style="fill:#aa0000;fill-opacity:1;stroke-width:0"
     d="m 393.0048,283.4484 c -0.44265,-2.57438 -2.21781,-13.05546 -3.94482,-23.29129 l -3.14,-18.61061 -21.67273,-9.46398 -21.67273,-9.46399 21.00976,-10.94732 c 17.2081,-8.96643 21.0194,-11.26268 21.06299,-12.69011 0.0292,-0.95854 1.05789,-11.56339 2.28582,-23.56633 l 2.23261,-21.82353 16.86123,16.5843 16.86124,16.58429 22.47873,-4.9487 c 12.3633,-2.72178 22.66867,-4.75876 22.90083,-4.52661 0.23214,0.23215 -4.22139,9.70332 -9.89673,21.04703 l -10.31882,20.62494 11.87217,20.22914 c 6.5297,11.12603 11.38958,20.22914 10.79974,20.22914 -0.58984,0 -11.0318,-1.48046 -23.20437,-3.28991 l -22.13195,-3.28991 -1.77756,1.84874 c -0.97767,1.0168 -8.08275,8.95797 -15.78908,17.64706 l -14.01151,15.79833 z"
     id="path11938"
     inkscape:connector-curvature="0" />
  <path
     style="fill:#aa0000;fill-opacity:1;stroke-width:0"
     d="m 283.4796,478.37755 c -1.43011,-8.32658 -3.21289,-18.87 -3.96174,-23.42981 l -1.36152,-8.29058 -21.67662,-9.46567 -21.67661,-9.46568 20.95429,-10.92831 c 14.3343,-7.47577 20.97239,-11.36247 21.01158,-12.30257 0.0315,-0.75585 1.07249,-11.38015 2.31328,-23.60956 l 2.25599,-22.2353 16.84196,16.62694 16.84196,16.62693 22.47427,-4.98762 c 12.36085,-2.74319 22.66254,-4.79936 22.89264,-4.56925 0.23012,0.23011 -4.2151,9.67963 -9.87824,20.99894 l -10.29661,20.58055 11.79395,20.06764 c 6.48666,11.0372 11.4804,20.18743 11.09719,20.33383 -0.60692,0.23188 -37.95813,-4.98364 -43.60586,-6.08889 -1.86042,-0.36408 -3.65544,1.35267 -16.05883,15.35854 -7.68035,8.67264 -14.72852,16.70234 -15.66257,17.84378 l -1.6983,2.07533 z"
     id="path11940"
     inkscape:connector-curvature="0" />
  <path
     style="fill:#aa0000;fill-opacity:1;stroke-width:0"
     d="m 130.68542,417.00661 c -0.23696,-0.84316 -1.99208,-10.98301 -3.90027,-22.53301 -1.90819,-11.55 -3.79952,-21.41928 -4.20297,-21.93172 -0.40344,-0.51244 -9.98935,-4.95159 -21.30201,-9.86478 -11.312671,-4.91318 -20.568481,-9.16581 -20.568481,-9.45028 0,-0.28448 9.110393,-5.25311 20.245321,-11.04141 11.13493,-5.7883 20.381,-10.93699 20.54682,-11.44153 0.33193,-1.00995 4.50197,-43.2072 4.50197,-45.55612 0,-0.90235 6.39919,4.92967 16.68384,15.20514 9.1761,9.16791 17.23639,16.66051 17.91176,16.65022 0.67537,-0.0103 11.04853,-2.19363 23.05147,-4.85186 12.00294,-2.65823 21.93612,-4.72987 22.07373,-4.60364 0.13761,0.12624 -4.43884,9.6287 -10.1699,21.11658 l -10.42009,20.88705 11.97701,20.38235 c 6.58736,11.2103 11.84483,20.38235 11.68328,20.38235 -0.16156,0 -10.23947,-1.49368 -22.39536,-3.3193 -12.15589,-1.82561 -22.68779,-3.21532 -23.40421,-3.08823 -0.71643,0.12709 -7.70769,7.45753 -15.53612,16.28989 -7.82843,8.83235 -14.70859,16.56338 -15.28923,17.18006 -0.88405,0.93892 -1.12577,0.87196 -1.48656,-0.41176 z"
     id="path11942"
     inkscape:connector-curvature="0" />
</svg>
