<?xml version="1.0" encoding="UTF-8" standalone="no"?>
<svg
   xmlns:dc="http://purl.org/dc/elements/1.1/"
   xmlns:cc="http://creativecommons.org/ns#"
   xmlns:rdf="http://www.w3.org/1999/02/22-rdf-syntax-ns#"
   xmlns:svg="http://www.w3.org/2000/svg"
   xmlns="http://www.w3.org/2000/svg"
   xmlns:sodipodi="http://sodipodi.sourceforge.net/DTD/sodipodi-0.dtd"
   xmlns:inkscape="http://www.inkscape.org/namespaces/inkscape"
   width="560pt"
   height="560pt"
   version="1.1"
   viewBox="0 0 560 560"
   id="svg3763"
   sodipodi:docname="bola-7.svg"
   inkscape:version="0.92.5 (2060ec1f9f, 2020-04-08)">
  <metadata
     id="metadata3767">
    <rdf:RDF>
      <cc:Work
         rdf:about="">
        <dc:format>image/svg+xml</dc:format>
        <dc:type
           rdf:resource="http://purl.org/dc/dcmitype/StillImage" />
        <dc:title></dc:title>
      </cc:Work>
    </rdf:RDF>
  </metadata>
  <sodipodi:namedview
     pagecolor="#ffffff"
     bordercolor="#666666"
     borderopacity="1"
     objecttolerance="10"
     gridtolerance="10"
     guidetolerance="10"
     inkscape:pageopacity="0"
     inkscape:pageshadow="2"
     inkscape:window-width="1920"
     inkscape:window-height="1031"
     id="namedview3765"
     showgrid="false"
     inkscape:zoom="0.715188"
     inkscape:cx="366.2015"
     inkscape:cy="391.35816"
     inkscape:window-x="0"
     inkscape:window-y="25"
     inkscape:window-maximized="1"
     inkscape:current-layer="svg3763"
     fit-margin-top="0"
     fit-margin-left="0"
     fit-margin-right="0"
     fit-margin-bottom="0" />
  <defs
     id="defs3673">
    <symbol
       id="v"
       overflow="visible"
       style="overflow:visible">
      <path
         d="m 18.766,-1.125 c -0.96875,0.5 -1.9805,0.875 -3.0312,1.125 -1.043,0.25781 -2.1367,0.39062 -3.2812,0.39062 -3.3984,0 -6.0898,-0.94531 -8.0781,-2.8438 -1.9922,-1.9062 -2.9844,-4.4844 -2.9844,-7.7344 0,-3.2578 0.99219,-5.8359 2.9844,-7.7344 1.9883,-1.9062 4.6797,-2.8594 8.0781,-2.8594 1.1445,0 2.2383,0.13281 3.2812,0.39062 1.0508,0.25 2.0625,0.625 3.0312,1.125 v 4.2188 c -0.98047,-0.65625 -1.9453,-1.1406 -2.8906,-1.4531 -0.94922,-0.3125 -1.9492,-0.46875 -3,-0.46875 -1.875,0 -3.3516,0.60547 -4.4219,1.8125 -1.0742,1.1992 -1.6094,2.8555 -1.6094,4.9688 0,2.1055 0.53516,3.7617 1.6094,4.9688 1.0703,1.1992 2.5469,1.7969 4.4219,1.7969 1.0508,0 2.0508,-0.14844 3,-0.45312 0.94531,-0.3125 1.9102,-0.80078 2.8906,-1.4688 z"
         id="path3607"
         inkscape:connector-curvature="0" />
    </symbol>
    <symbol
       id="d"
       overflow="visible"
       style="overflow:visible">
      <path
         d="m 13.734,-11.141 c -0.4375,-0.19531 -0.87109,-0.34375 -1.2969,-0.4375 -0.41797,-0.10156 -0.83984,-0.15625 -1.2656,-0.15625 -1.2617,0 -2.2305,0.40625 -2.9062,1.2188 -0.67969,0.80469 -1.0156,1.9531 -1.0156,3.4531 v 7.0625 H 2.3591 v -15.312 h 4.8906 v 2.5156 c 0.625,-1 1.3438,-1.7266 2.1562,-2.1875 0.82031,-0.46875 1.8008,-0.70312 2.9375,-0.70312 0.16406,0 0.34375,0.01172 0.53125,0.03125 0.19531,0.01172 0.47656,0.03906 0.84375,0.07813 z"
         id="path3610"
         inkscape:connector-curvature="0" />
    </symbol>
    <symbol
       id="a"
       overflow="visible"
       style="overflow:visible">
      <path
         d="m 17.641,-7.7031 v 1.4062 H 6.188 c 0.125,1.1484 0.53906,2.0078 1.25,2.5781 0.70703,0.57422 1.7031,0.85938 2.9844,0.85938 1.0312,0 2.082,-0.14844 3.1562,-0.45312 1.082,-0.3125 2.1914,-0.77344 3.3281,-1.3906 v 3.7656 c -1.1562,0.4375 -2.3125,0.76562 -3.4688,0.98438 -1.1562,0.22656 -2.3125,0.34375 -3.4688,0.34375 -2.7734,0 -4.9297,-0.70312 -6.4688,-2.1094 -1.5312,-1.4062 -2.2969,-3.3789 -2.2969,-5.9219 0,-2.5 0.75391,-4.4609 2.2656,-5.8906 1.5078,-1.4375 3.582,-2.1562 6.2188,-2.1562 2.4062,0 4.332,0.73047 5.7812,2.1875 1.4453,1.4492 2.1719,3.3828 2.1719,5.7969 z m -5.0312,-1.625 c 0,-0.92578 -0.27344,-1.6719 -0.8125,-2.2344 -0.54297,-0.57031 -1.25,-0.85938 -2.125,-0.85938 -0.94922,0 -1.7188,0.26562 -2.3125,0.79688 -0.5937,0.53126 -0.96484,1.2969 -1.1094,2.2969 z"
         id="path3613"
         inkscape:connector-curvature="0" />
    </symbol>
    <symbol
       id="g"
       overflow="visible"
       style="overflow:visible">
      <path
         d="m 9.2188,-6.8906 c -1.0234,0 -1.793,0.17188 -2.3125,0.51562 -0.51172,0.34375 -0.76562,0.85547 -0.76562,1.5312 0,0.625 0.20703,1.1172 0.625,1.4688 0.41406,0.34375 0.98828,0.51562 1.7188,0.51562 0.92578,0 1.7031,-0.32812 2.3281,-0.98438 0.63281,-0.66406 0.95312,-1.4922 0.95312,-2.4844 v -0.5625 z m 7.4688,-1.8438 V 0 h -4.9219 v -2.2656 c -0.65625,0.92969 -1.3984,1.6055 -2.2188,2.0312 -0.82422,0.41406 -1.8242,0.625 -3,0.625 -1.5859,0 -2.8711,-0.45703 -3.8594,-1.375 -0.99219,-0.92578 -1.4844,-2.1289 -1.4844,-3.6094 0,-1.7891 0.61328,-3.1016 1.8438,-3.9375 1.2383,-0.84375 3.1797,-1.2656 5.8281,-1.2656 h 2.8906 v -0.39062 c 0,-0.76953 -0.30859,-1.332 -0.92188,-1.6875 -0.61719,-0.36328 -1.5703,-0.54688 -2.8594,-0.54688 -1.0547,0 -2.0312,0.10547 -2.9375,0.3125 -0.89844,0.21094 -1.7305,0.52344 -2.5,0.9375 v -3.7344 c 1.0391,-0.25 2.0859,-0.44141 3.1406,-0.57812 1.0625,-0.13281 2.125,-0.20312 3.1875,-0.20312 2.7578,0 4.75,0.54688 5.9688,1.6406 1.2266,1.0859 1.8438,2.8555 1.8438,5.3125 z"
         id="path3616"
         inkscape:connector-curvature="0" />
    </symbol>
    <symbol
       id="c"
       overflow="visible"
       style="overflow:visible">
      <path
         d="m 7.7031,-19.656 v 4.3438 H 12.75 v 3.5 H 7.7031 v 6.5 c 0,0.71094 0.14062,1.1875 0.42188,1.4375 0.28126,0.25 0.83594,0.375 1.6719,0.375 h 2.5156 v 3.5 h -4.1875 c -1.9375,0 -3.3125,-0.39844 -4.125,-1.2031 -0.80469,-0.8125 -1.2031,-2.1797 -1.2031,-4.1094 v -6.5 h -2.4219 v -3.5 h 2.4219 v -4.3438 z"
         id="path3619"
         inkscape:connector-curvature="0" />
    </symbol>
    <symbol
       id="f"
       overflow="visible"
       style="overflow:visible">
      <path
         d="m 12.766,-13.078 v -8.2031 h 4.9219 V -10e-5 H 12.766 v -2.2188 c -0.66797,0.90625 -1.4062,1.5703 -2.2188,1.9844 -0.8126,0.4141 -1.7578,0.625 -2.8281,0.625 -1.8867,0 -3.4336,-0.75 -4.6406,-2.25 -1.2109,-1.5 -1.8125,-3.4258 -1.8125,-5.7812 0,-2.3633 0.60156,-4.2969 1.8125,-5.7969 1.207,-1.5 2.7539,-2.25 4.6406,-2.25 1.0625,0 2,0.21484 2.8125,0.64062 0.82031,0.42969 1.5664,1.0859 2.2344,1.9688 z m -3.2188,9.9219 c 1.0391,0 1.8359,-0.37891 2.3906,-1.1406 0.55078,-0.76953 0.82812,-1.8828 0.82812,-3.3438 0,-1.457 -0.27734,-2.5664 -0.82812,-3.3281 -0.55469,-0.76953 -1.3516,-1.1562 -2.3906,-1.1562 -1.043,0 -1.8398,0.38672 -2.3906,1.1562 -0.55469,0.76172 -0.82812,1.8711 -0.82812,3.3281 0,1.4609 0.27344,2.5742 0.82812,3.3438 0.55078,0.76172 1.3477,1.1406 2.3906,1.1406 z"
         id="path3622"
         inkscape:connector-curvature="0" />
    </symbol>
    <symbol
       id="j"
       overflow="visible"
       style="overflow:visible">
      <path
         d="m 10.5,-3.1562 c 1.0508,0 1.8516,-0.37891 2.4062,-1.1406 0.55078,-0.76953 0.82812,-1.8828 0.82812,-3.3438 0,-1.457 -0.27734,-2.5664 -0.82812,-3.3281 -0.55469,-0.76953 -1.3555,-1.1562 -2.4062,-1.1562 -1.0547,0 -1.8594,0.38672 -2.4219,1.1562 -0.55469,0.77344 -0.82812,1.8828 -0.82812,3.3281 0,1.4492 0.27344,2.5586 0.82812,3.3281 0.5625,0.77344 1.3672,1.1562 2.4219,1.1562 z m -3.25,-9.9219 c 0.67578,-0.88281 1.4219,-1.5391 2.2344,-1.9688 0.82031,-0.42578 1.7656,-0.64062 2.8281,-0.64062 1.8945,0 3.4453,0.75 4.6562,2.25 1.207,1.5 1.8125,3.4336 1.8125,5.7969 0,2.3555 -0.60547,4.2812 -1.8125,5.7812 -1.2109,1.5 -2.7617,2.25 -4.6562,2.25 -1.0625,0 -2.0078,-0.21094 -2.8281,-0.625 C 8.6719,-0.6602 7.9258,-1.32032 7.25,-2.21882 V -2e-5 H 2.3594 v -21.281 H 7.25 Z"
         id="path3625"
         inkscape:connector-curvature="0" />
    </symbol>
    <symbol
       id="e"
       overflow="visible"
       style="overflow:visible">
      <path
         d="m 0.34375,-15.312 h 4.8906 l 4.125,10.391 3.5,-10.391 h 4.8906 l -6.4375,16.766 c -0.64844,1.6953 -1.4023,2.8828 -2.2656,3.5625 -0.86719,0.6875 -2,1.0312 -3.4062,1.0312 H 2.79685 V 2.8289 h 1.5312 c 0.83203,0 1.4375,-0.13672 1.8125,-0.40625 C 6.52336,2.16093 6.82024,1.69218 7.03117,1.01645 L 7.17179,0.59457 Z"
         id="path3628"
         inkscape:connector-curvature="0" />
    </symbol>
    <symbol
       id="i"
       overflow="visible"
       style="overflow:visible">
      <path
         d="m 0.14062,-20.406 h 18.812 v 3.9688 h -6.7656 V 8e-4 h -5.2656 v -16.438 h -6.7812 z"
         id="path3631"
         inkscape:connector-curvature="0" />
    </symbol>
    <symbol
       id="h"
       overflow="visible"
       style="overflow:visible">
      <path
         d="M 17.75,-9.3281 V 0 h -4.9219 v -7.1094 c 0,-1.3438 -0.03125,-2.2656 -0.09375,-2.7656 -0.0625,-0.5 -0.16797,-0.86719 -0.3125,-1.1094 -0.1875,-0.3125 -0.44922,-0.55469 -0.78125,-0.73438 -0.32422,-0.17578 -0.69531,-0.26562 -1.1094,-0.26562 -1.0234,0 -1.8242,0.39844 -2.4062,1.1875 -0.58594,0.78125 -0.875,1.8711 -0.875,3.2656 V -1e-4 H 2.3594 v -21.281 H 7.25 v 8.2031 c 0.73828,-0.88281 1.5195,-1.5391 2.3438,-1.9688 0.83203,-0.42578 1.75,-0.64062 2.75,-0.64062 1.7695,0 3.1133,0.54688 4.0312,1.6406 0.91406,1.0859 1.375,2.6562 1.375,4.7188 z"
         id="path3634"
         inkscape:connector-curvature="0" />
    </symbol>
    <symbol
       id="u"
       overflow="visible"
       style="overflow:visible">
      <path
         d="m 14.312,-14.828 v 3.7188 c -1.043,-0.4375 -2.0547,-0.76562 -3.0312,-0.98438 -0.98047,-0.21875 -1.9023,-0.32812 -2.7656,-0.32812 -0.92969,0 -1.6211,0.11719 -2.0781,0.34375 -0.44922,0.23047 -0.67188,0.58984 -0.67188,1.0781 0,0.38672 0.17188,0.68359 0.51562,0.89062 0.34375,0.21094 0.95703,0.36719 1.8438,0.46875 l 0.85938,0.125 c 2.5078,0.32422 4.1953,0.85156 5.0625,1.5781 0.86328,0.73047 1.2969,1.8711 1.2969,3.4219 0,1.6367 -0.60547,2.8672 -1.8125,3.6875 -1.1992,0.8125 -2.9922,1.2188 -5.375,1.2188 -1.0234,0 -2.0742,-0.078125 -3.1562,-0.23438 -1.0742,-0.15625 -2.1797,-0.39453 -3.3125,-0.71875 v -3.7188 c 0.96875,0.48047 1.9609,0.83984 2.9844,1.0781 1.0312,0.23047 2.0781,0.34375 3.1406,0.34375 0.95703,0 1.6758,-0.12891 2.1562,-0.39062 0.47656,-0.26953 0.71875,-0.66406 0.71875,-1.1875 0,-0.4375 -0.16797,-0.75781 -0.5,-0.96875 -0.33594,-0.21875 -0.99609,-0.38281 -1.9844,-0.5 L 7.34339,-6.01551 c -2.1797,-0.26953 -3.7031,-0.77344 -4.5781,-1.5156 -0.875,-0.73828 -1.3125,-1.8594 -1.3125,-3.3594 0,-1.625 0.55078,-2.8281 1.6562,-3.6094 1.1133,-0.78906 2.8203,-1.1875 5.125,-1.1875 0.89453,0 1.8359,0.07422 2.8281,0.21875 1,0.13672 2.082,0.35156 3.25,0.64062 z"
         id="path3637"
         inkscape:connector-curvature="0" />
    </symbol>
    <symbol
       id="t"
       overflow="visible"
       style="overflow:visible">
      <path
         d="m 16.781,-19.766 v 4.3125 c -1.125,-0.5 -2.2266,-0.875 -3.2969,-1.125 -1.0625,-0.25781 -2.0703,-0.39062 -3.0156,-0.39062 -1.25,0 -2.1797,0.17969 -2.7812,0.53125 -0.60547,0.34375 -0.90625,0.88281 -0.90625,1.6094 0,0.54297 0.20312,0.96875 0.60938,1.2812 0.40625,0.30469 1.1406,0.5625 2.2031,0.78125 l 2.25,0.45312 c 2.2695,0.44922 3.8789,1.1406 4.8281,2.0781 0.95703,0.92969 1.4375,2.2461 1.4375,3.9531 0,2.25 -0.66797,3.9297 -2,5.0312 -1.3359,1.0938 -3.3711,1.6406 -6.1094,1.6406 -1.3047,0 -2.6055,-0.125 -3.9062,-0.375 -1.3047,-0.23828 -2.6055,-0.59766 -3.9062,-1.0781 v -4.4531 c 1.3008,0.69922 2.5625,1.2266 3.7812,1.5781 1.2188,0.34375 2.3906,0.51562 3.5156,0.51562 1.1562,0 2.0352,-0.1875 2.6406,-0.5625 0.61328,-0.38281 0.92188,-0.9375 0.92188,-1.6562 0,-0.63281 -0.21094,-1.125 -0.625,-1.4688 -0.41797,-0.34375 -1.2461,-0.65625 -2.4844,-0.9375 l -2.0312,-0.4375 c -2.043,-0.4375 -3.5391,-1.1328 -4.4844,-2.0938 -0.9375,-0.95703 -1.4062,-2.25 -1.4062,-3.875 0,-2.0312 0.65625,-3.5938 1.9688,-4.6875 1.31255,-1.0937 3.1953,-1.6406 5.6562,-1.6406 1.125,0 2.2734,0.08594 3.4531,0.25 1.1875,0.16797 2.4141,0.42188 3.6875,0.76562 z"
         id="path3640"
         inkscape:connector-curvature="0" />
    </symbol>
    <symbol
       id="b"
       overflow="visible"
       style="overflow:visible">
      <path
         d="m 9.6406,-12.188 c -1.0859,0 -1.9141,0.39062 -2.4844,1.1719 -0.57422,0.78125 -0.85938,1.9062 -0.85938,3.375 0,1.4688 0.28516,2.5938 0.85938,3.375 0.57031,0.77344 1.3984,1.1562 2.4844,1.1562 1.0625,0 1.875,-0.38281 2.4375,-1.1562 0.57031,-0.78125 0.85938,-1.9062 0.85938,-3.375 0,-1.4688 -0.28906,-2.5938 -0.85938,-3.375 -0.5625,-0.78125 -1.375,-1.1719 -2.4375,-1.1719 z m 0,-3.5 c 2.6328,0 4.6914,0.71484 6.1719,2.1406 1.4766,1.418 2.2188,3.3867 2.2188,5.9062 0,2.5117 -0.74219,4.4805 -2.2188,5.9062 C 14.332,-0.317 12.2734,0.39 9.6406,0.39 6.9922,0.39 4.9258,-0.31703 3.4375,-1.735 1.9453,-3.1608 1.2031,-5.1295 1.2031,-7.6412 c 0,-2.5195 0.74219,-4.4883 2.2344,-5.9062 1.4883,-1.4258 3.5547,-2.1406 6.2031,-2.1406 z"
         id="path3643"
         inkscape:connector-curvature="0" />
    </symbol>
    <symbol
       id="s"
       overflow="visible"
       style="overflow:visible">
      <path
         d="M 2.3594,-21.281 H 7.25 V 0 H 2.3594 Z"
         id="path3646"
         inkscape:connector-curvature="0" />
    </symbol>
    <symbol
       id="r"
       overflow="visible"
       style="overflow:visible">
      <path
         d="m 12.422,-21.281 v 3.2188 H 9.7189 c -0.6875,0 -1.1719,0.125 -1.4531,0.375 -0.27344,0.25 -0.40625,0.6875 -0.40625,1.3125 v 1.0625 h 4.1875 v 3.5 H 7.85955 V -2e-4 h -4.8906 v -11.812 h -2.4375 v -3.5 h 2.4375 v -1.0625 c 0,-1.6641 0.46094,-2.8984 1.3906,-3.7031 0.92578,-0.80078 2.3672,-1.2031 4.3281,-1.2031 z"
         id="path3649"
         inkscape:connector-curvature="0" />
    </symbol>
    <symbol
       id="q"
       overflow="visible"
       style="overflow:visible">
      <path
         d="m 16.547,-12.766 c 0.61328,-0.94531 1.3477,-1.6719 2.2031,-2.1719 0.85156,-0.5 1.7891,-0.75 2.8125,-0.75 1.7578,0 3.0977,0.54688 4.0156,1.6406 0.92578,1.0859 1.3906,2.6562 1.3906,4.7188 V -4e-4 h -4.9219 v -7.9844 -0.35938 c 0.0078,-0.13281 0.01563,-0.32031 0.01563,-0.5625 0,-1.082 -0.16406,-1.8633 -0.48438,-2.3438 -0.3125,-0.48828 -0.82422,-0.73438 -1.5312,-0.73438 -0.92969,0 -1.6484,0.38672 -2.1562,1.1562 -0.51172,0.76172 -0.77344,1.8672 -0.78125,3.3125 v 7.5156 h -4.9219 v -7.9844 c 0,-1.6953 -0.14844,-2.7852 -0.4375,-3.2656 -0.29297,-0.48828 -0.8125,-0.73438 -1.5625,-0.73438 -0.9375,0 -1.6641,0.38672 -2.1719,1.1562 -0.51172,0.76172 -0.76562,1.8594 -0.76562,3.2969 v 7.5312 h -4.9219 v -15.312 h 4.9219 v 2.2344 c 0.60156,-0.86328 1.2891,-1.5156 2.0625,-1.9531 0.78125,-0.4375 1.6406,-0.65625 2.5781,-0.65625 1.0625,0 2,0.25781 2.8125,0.76562 0.8125,0.51172 1.4258,1.2305 1.8438,2.1562 z"
         id="path3652"
         inkscape:connector-curvature="0" />
    </symbol>
    <symbol
       id="p"
       overflow="visible"
       style="overflow:visible">
      <path
         d="m 2.5781,-20.406 h 5.875 l 7.4219,14 v -14 h 4.9844 V 0 h -5.875 L 7.5625,-14 V 0 H 2.5781 Z"
         id="path3655"
         inkscape:connector-curvature="0" />
    </symbol>
    <symbol
       id="o"
       overflow="visible"
       style="overflow:visible">
      <path
         d="m 2.1875,-5.9688 v -9.3438 h 4.9219 v 1.5312 c 0,0.83594 -0.00781,1.875 -0.015625,3.125 -0.011719,1.25 -0.015625,2.0859 -0.015625,2.5 0,1.2422 0.03125,2.1328 0.09375,2.6719 0.070313,0.54297 0.17969,0.93359 0.32812,1.1719 0.20703,0.32422 0.47266,0.57422 0.79688,0.75 0.32031,0.16797 0.69141,0.25 1.1094,0.25 1.0195,0 1.8203,-0.39062 2.4062,-1.1719 0.58203,-0.78125 0.875,-1.8672 0.875,-3.2656 v -7.5625 h 4.8906 V -6e-4 H 12.6875 V -2.2194 C 11.94531,-1.32096 11.1641,-0.6608 10.3437,-0.235 9.51948,0.17906 8.6093,0.39 7.6093,0.39 5.8476,0.39 4.5038,-0.14906 3.5781,-1.235 2.64841,-2.317 2.1875,-3.8952 2.1875,-5.9694 Z"
         id="path3658"
         inkscape:connector-curvature="0" />
    </symbol>
    <symbol
       id="n"
       overflow="visible"
       style="overflow:visible">
      <path
         d="M 17.75,-9.3281 V 0 h -4.9219 v -7.1406 c 0,-1.3203 -0.03125,-2.2344 -0.09375,-2.7344 -0.0625,-0.5 -0.16797,-0.86719 -0.3125,-1.1094 -0.1875,-0.3125 -0.44922,-0.55469 -0.78125,-0.73438 -0.32422,-0.17578 -0.69531,-0.26562 -1.1094,-0.26562 -1.0234,0 -1.8242,0.39844 -2.4062,1.1875 -0.58594,0.78125 -0.875,1.8711 -0.875,3.2656 V -1e-4 H 2.3594 v -15.312 H 7.25 v 2.2344 c 0.73828,-0.88281 1.5195,-1.5391 2.3438,-1.9688 0.83203,-0.42578 1.75,-0.64062 2.75,-0.64062 1.7695,0 3.1133,0.54688 4.0312,1.6406 0.91406,1.0859 1.375,2.6562 1.375,4.7188 z"
         id="path3661"
         inkscape:connector-curvature="0" />
    </symbol>
    <symbol
       id="m"
       overflow="visible"
       style="overflow:visible">
      <path
         d="m 2.5781,-20.406 h 8.7344 c 2.5938,0 4.582,0.57812 5.9688,1.7344 1.3945,1.1484 2.0938,2.7891 2.0938,4.9219 0,2.1367 -0.69922,3.7812 -2.0938,4.9375 -1.3867,1.1562 -3.375,1.7344 -5.9688,1.7344 H 7.8281 V 3e-4 h -5.25 z m 5.25,3.8125 v 5.7031 H 10.75 c 1.0195,0 1.8047,-0.25 2.3594,-0.75 0.5625,-0.5 0.84375,-1.2031 0.84375,-2.1094 0,-0.91406 -0.28125,-1.6172 -0.84375,-2.1094 -0.55469,-0.48828 -1.3398,-0.73438 -2.3594,-0.73438 z"
         id="path3664"
         inkscape:connector-curvature="0" />
    </symbol>
    <symbol
       id="l"
       overflow="visible"
       style="overflow:visible">
      <path
         d="M 2.3594,-15.312 H 7.25 v 15.031 c 0,2.0508 -0.49609,3.6172 -1.4844,4.7031 -0.98047,1.082 -2.4062,1.625 -4.2812,1.625 H -0.9375 V 2.8283 h 0.85938 c 0.92578,0 1.5625,-0.21094 1.9062,-0.625 0.35156,-0.41797 0.53125,-1.2461 0.53125,-2.4844 z m 0,-5.9688 H 7.25 v 4 H 2.3594 Z"
         id="path3667"
         inkscape:connector-curvature="0" />
    </symbol>
    <symbol
       id="k"
       overflow="visible"
       style="overflow:visible">
      <path
         d="m 14.719,-14.828 v 3.9844 c -0.65625,-0.45703 -1.3242,-0.79688 -2,-1.0156 -0.66797,-0.21875 -1.3594,-0.32812 -2.0781,-0.32812 -1.3672,0 -2.4336,0.40234 -3.2031,1.2031 -0.76172,0.79297 -1.1406,1.9062 -1.1406,3.3438 0,1.4297 0.37891,2.543 1.1406,3.3438 0.76953,0.79297 1.8359,1.1875 3.2031,1.1875 0.75781,0 1.4844,-0.10938 2.1719,-0.32812 0.6875,-0.22656 1.3203,-0.56641 1.9062,-1.0156 v 4 c -0.76172,0.28125 -1.5391,0.48828 -2.3281,0.625 -0.78125,0.14453 -1.5742,0.21875 -2.375,0.21875 -2.7617,0 -4.9219,-0.70703 -6.4844,-2.125 -1.5547,-1.4141 -2.3281,-3.3828 -2.3281,-5.9062 0,-2.5312 0.77344,-4.5039 2.3281,-5.9219 1.5625,-1.4141 3.7227,-2.125 6.4844,-2.125 0.80078,0 1.5938,0.07422 2.375,0.21875 0.78125,0.13672 1.5547,0.35156 2.3281,0.64062 z"
         id="path3670"
         inkscape:connector-curvature="0" />
    </symbol>
  </defs>
  <ellipse
     style="fill:#ff6600;fill-opacity:1;stroke-width:0"
     id="path13184"
     cx="279.74121"
     cy="278.42053"
     rx="260.59583"
     ry="261.12018" />
  <path
     inkscape:connector-curvature="0"
     id="path3675"
     d="M 280,560 C 125.61,560 0,434.39 0,280 0,125.61 125.61,0 280,0 434.39,0 560,125.61 560,280 560,434.39 434.39,560 280,560 Z M 280,26.36 C 140.14,26.36 26.36,140.15 26.36,280 26.36,419.85 140.15,533.64 280,533.64 419.85,533.64 533.64,419.85 533.64,280 533.64,140.15 419.85,26.36 280,26.36 Z M 98.469,163.717 c 5.2305,-18.801 16.559,-35.98 30.285,-50.02 6.8867,-7.0859 14.594,-13.301 22.562,-19.051 7.9922,-5.7188 16.238,-11.066 24.949,-15.539 17.289,-9.1562 35.707,-15.898 54.562,-20.109 18.84,-4.2109 38.148,-5.9258 57.148,-4.7305 4.082,0.25781 7.1797,3.7734 6.9219,7.8516 -0.21094,3.457 -2.7656,6.2031 -6.0156,6.8164 l -0.0664,0.01172 c -17.656,3.3047 -34.781,7.7266 -51.238,13.629 -16.441,5.9062 -32.188,13.266 -46.906,22.121 -7.2969,4.5312 -14.488,9.168 -21.246,14.379 -6.7891,5.1758 -13.125,10.848 -19.414,16.547 -12.641,11.508 -24.18,23.527 -37.094,36.664 -3.3477,3.4062 -8.8203,3.457 -12.23,0.10547 -2.3242,-2.2773 -3.0859,-5.5508 -2.2773,-8.4766 z m -27.207,80.148 c -1.4688,-2.2383 -2.1094,-4.3633 -2.6602,-6.4688 -0.38672,-2.1992 -0.44141,-4.4141 -0.26953,-6.5703 0.51562,-4.1992 1.7031,-8.2617 2.9453,-12.285 1.3047,-4.0078 2.9844,-7.9062 4.9062,-11.68 1.9766,-3.7578 4.2734,-7.3789 7.1523,-10.691 2.3398,-2.6875 6.6875,-2.9688 9.375,-0.63281 1.4297,1.2422 2.4883,2.9688 2.4883,4.7148 v 0.21094 c 0,4.1836 -0.51562,8.125 -0.97266,11.988 -0.44922,3.8633 -1.0859,7.668 -1.7695,11.406 -0.68359,3.7422 -1.3047,7.5 -2.3477,11.145 -0.51953,1.7812 -1.3281,3.5039 -2.4062,5.2461 -1.1367,1.8555 -2.3984,3.6914 -4.4531,5.4023 -3.4453,2.8672 -8.5586,2.3984 -11.426,-1.043 -0.19922,-0.23438 -0.39453,-0.48438 -0.5625,-0.74219 z m 436.22,60.988 c 2.5586,16.09 -0.0352,32.727 -5.168,48.027 -2.582,7.6992 -6.0312,15.055 -9.7344,22.238 -3.7422,7.1641 -7.6875,14.219 -12.27,20.848 -8.9805,13.371 -19.453,25.641 -31.121,36.512 -11.66,10.852 -24.516,20.332 -38.387,27.805 -3.6172,1.9492 -8.1133,0.58984 -10.062,-3.0195 -1.5742,-2.9297 -0.98438,-6.457 1.2422,-8.7305 l 0.0547,-0.0547 c 10.426,-10.602 20.238,-21.391 29.211,-32.711 8.9609,-11.316 17.074,-23.121 24.188,-35.402 3.4492,-6.2031 6.9258,-12.371 9.9219,-18.766 3.0312,-6.3906 5.6328,-12.93 8.3555,-19.414 5.4727,-13.059 10.473,-25.934 17.152,-39.844 2.1094,-4.375 7.3516,-6.2148 11.73,-4.1094 2.6836,1.2812 4.4062,3.7578 4.8594,6.4805 z"
     sodipodi:nodetypes="ssssssssssccccccccccccccccccccccccssccccccccccccccccccccccccc" />
  <path
     style="fill:#aa0000;fill-opacity:1;stroke-width:0"
     d="m 213.4198,236.53776 c -0.0825,-1.59959 -7.30814,-43.05185 -7.53876,-43.24834 -0.17204,-0.14658 -9.39697,-4.18483 -20.49985,-8.97391 l -20.18705,-8.70739 9.7003,-5.15269 c 5.33517,-2.83399 14.30136,-7.47438 19.92489,-10.312 7.42443,-3.74635 10.22458,-5.69394 10.22458,-7.11151 0,-2.31621 2.86409,-31.15312 3.75154,-37.77223 l 0.61848,-4.61294 10.66127,10.39206 c 5.86369,5.71564 13.08326,12.67406 16.04349,15.46315 l 5.38222,5.07108 19.78598,-4.36985 c 10.88229,-2.40341 20.60928,-4.60355 21.61553,-4.8892 1.32001,-0.37471 -0.943,5.10089 -8.12564,19.66088 -8.94461,18.13171 -9.81395,20.40081 -8.56399,22.35322 4.85756,7.58745 20.75739,35.42625 20.42382,35.75981 -0.22275,0.22276 -9.58809,-0.9818 -20.81186,-2.6768 -11.22376,-1.695 -20.92925,-3.09044 -21.56775,-3.10097 -0.63851,-0.0105 -7.64393,7.29537 -15.5676,16.23533 -12.8194,14.4636 -15.21886,16.97663 -15.2696,15.9923 z"
     id="path12627"
     inkscape:connector-curvature="0" />
  <path
     style="fill:#aa0000;fill-opacity:1;stroke-width:0"
     d="m 335.60399,231.81652 c 0,-1.42908 -7.26619,-42.48201 -7.57353,-42.78934 -0.16529,-0.16529 -9.26468,-4.17525 -20.22086,-8.91102 -10.95619,-4.73577 -20.00871,-8.676 -20.11671,-8.75605 -0.108,-0.0801 8.7402,-4.8359 19.66267,-10.56854 12.50601,-6.56376 19.87142,-11.02102 19.8925,-12.03818 0.0755,-3.64342 4.02137,-41.15023 4.36535,-41.49421 0.20485,-0.20485 7.52621,6.45311 16.26968,14.79548 l 15.89722,15.16794 21.23636,-4.74245 c 11.68001,-2.60835 21.37637,-4.74246 21.54747,-4.74246 0.17109,0 -4.14052,8.96235 -9.58136,19.91634 l -9.89244,19.91633 11.42247,19.44481 11.4225,19.44483 -3.34589,-0.57647 c -7.63402,-1.31527 -38.46265,-5.78724 -39.89581,-5.78724 -0.85321,0 -8.00847,7.31451 -15.90056,16.25447 -7.89209,8.93995 -14.53822,16.25446 -14.76916,16.25446 -0.23094,0 -0.4199,-0.35492 -0.4199,-0.7887 z"
     id="path13172"
     inkscape:connector-curvature="0" />
  <path
     style="fill:#aa0000;fill-opacity:1;stroke-width:0"
     d="m 134.00971,330.02083 c -2.07986,-12.15281 -3.93656,-22.20884 -4.12599,-22.34673 -0.18944,-0.1379 -8.83871,-3.90965 -19.22059,-8.3817 -10.38188,-4.47204 -19.265273,-8.50553 -19.740856,-8.9633 -0.475582,-0.45777 7.546785,-5.18595 17.827486,-10.50706 10.28069,-5.32112 19.02703,-9.9859 19.4363,-10.36618 0.40926,-0.38029 1.47061,-8.23737 2.35854,-17.46019 0.88794,-9.22282 1.89531,-19.01184 2.23862,-21.75339 l 0.62418,-4.98463 15.77809,15.20922 c 8.67796,8.36507 16.30191,15.19404 16.94211,15.17549 0.6402,-0.0185 10.36612,-2.06894 21.61317,-4.5564 11.24704,-2.48747 20.59495,-4.41075 20.77313,-4.27396 0.17818,0.13679 -4.12655,9.14776 -9.56606,20.02436 l -9.89002,19.77565 10.98445,18.68122 c 6.04143,10.27468 10.76826,18.8974 10.50405,19.16161 -0.26421,0.26421 -10.0776,-0.95971 -21.80754,-2.71981 -20.41537,-3.06338 -21.40136,-3.12041 -23.06274,-1.33413 -1.7595,1.89179 -27.41957,31.02446 -27.72096,31.47245 -0.0901,0.13392 -1.86551,-9.69972 -3.94537,-21.85252 z"
     id="path13174"
     inkscape:connector-curvature="0" />
  <path
     style="fill:#aa0000;fill-opacity:1;stroke-width:0"
     d="m 255.91149,323.88204 -3.57225,-22.01316 -14.73392,-6.46186 c -8.10366,-3.55401 -17.32102,-7.59919 -20.48302,-8.98927 l -5.74908,-2.52743 8.89511,-4.77216 c 4.89232,-2.62468 13.45966,-7.07125 19.03855,-9.88126 5.57889,-2.81 10.4533,-5.61047 10.83202,-6.22326 0.65018,-1.05199 4.63478,-36.52966 4.6909,-41.76621 0.0216,-2.01396 2.80471,0.20056 15.81518,12.5841 8.68395,8.26549 16.37491,15.16236 17.09102,15.32637 0.71611,0.16402 9.97159,-1.60562 20.56773,-3.93253 10.59614,-2.32691 19.8962,-4.23074 20.66683,-4.23074 0.87098,0 -2.17197,7.13778 -8.04249,18.86511 -5.19399,10.37583 -9.44079,19.45998 -9.43735,20.187 0.004,0.72704 4.92854,9.69818 10.94467,19.93588 6.21881,10.58258 10.34155,18.61398 9.55508,18.61398 -0.76085,0 -10.66739,-1.38779 -22.01456,-3.08397 l -20.6312,-3.08399 -3.44876,3.87049 c -1.89682,2.12877 -7.8252,8.82547 -13.17417,14.88157 -5.34897,6.0561 -10.51575,11.84436 -11.48173,12.8628 -1.65049,1.74012 -1.97157,0.52526 -5.32856,-20.16146 z"
     id="path13176"
     inkscape:connector-curvature="0" />
  <path
     style="fill:#aa0000;fill-opacity:1;stroke-width:0"
     d="m 393.28114,343.3406 c 0,-2.42982 -6.54305,-40.3001 -7.26471,-42.04714 -0.59958,-1.45153 -6.87297,-4.68063 -20.37327,-10.48675 -10.72881,-4.61417 -19.51716,-8.64247 -19.52967,-8.95177 -0.0125,-0.3093 7.96899,-4.71796 17.73666,-9.79704 9.76768,-5.07906 18.46417,-9.78099 19.32555,-10.44872 1.13188,-0.87743 2.0226,-5.86635 3.21242,-17.99286 0.90546,-9.22835 1.93549,-19.08002 2.28895,-21.89262 l 0.64265,-5.11382 15.36401,15.3384 c 8.45021,8.43612 16.16253,15.3384 17.1385,15.3384 0.97597,0 10.3702,-1.88762 20.87607,-4.1947 10.50587,-2.30708 19.73196,-4.19471 20.50241,-4.19471 0.86835,0 -2.35596,7.50572 -8.48214,19.74516 l -9.88297,19.74515 10.97245,18.66023 c 6.03485,10.26313 10.76343,18.86925 10.50797,19.12471 -0.25545,0.25547 -9.12437,-0.7895 -19.7087,-2.32214 -10.58433,-1.53263 -20.23603,-2.86136 -21.44822,-2.95273 -1.95094,-0.14704 -9.87811,8.10347 -31.49519,32.77977 -0.21053,0.24032 -0.38277,0.0888 -0.38277,-0.33682 z"
     id="path13178"
     inkscape:connector-curvature="0" />
  <path
     style="fill:#aa0000;fill-opacity:1;stroke-width:0"
     d="m 314.23629,458.45535 c -0.33812,-1.65363 -1.8124,-10.32113 -3.27617,-19.26108 -1.46377,-8.93996 -2.91412,-17.49852 -3.223,-19.01904 -0.49906,-2.45667 -2.77429,-3.72824 -20.42932,-11.41743 -10.92724,-4.75907 -19.8593,-8.94191 -19.84901,-9.2952 0.0103,-0.35328 8.7364,-5.12542 19.39137,-10.60475 17.18626,-8.83804 19.37971,-10.2583 19.43495,-12.5841 0.12716,-5.35391 3.84989,-39.89845 4.35404,-40.4026 0.28775,-0.28774 7.5957,6.29435 16.23989,14.62688 l 15.71671,15.15005 20.81606,-4.64958 c 11.44882,-2.55728 21.20373,-4.64959 21.67756,-4.64959 0.47385,0 -3.61368,8.941 -9.08338,19.86889 l -9.9449,19.86888 11.42865,19.45534 c 9.39984,16.00161 11.02471,19.365 9.15315,18.94647 -3.8588,-0.86293 -38.26381,-5.78098 -40.44177,-5.78098 -1.31676,0 -6.65977,5.17311 -14.89287,14.41929 -7.06167,7.93061 -13.65341,15.30036 -14.6483,16.37723 -1.75077,1.89501 -1.82866,1.86131 -2.42366,-1.04868 z"
     id="path13180"
     inkscape:connector-curvature="0" />
  <path
     style="fill:#aa0000;fill-opacity:1;stroke-width:0"
     d="m 196.68995,466.19766 c -0.23269,-0.72097 -1.89435,-10.27702 -3.69258,-21.23568 -1.79822,-10.95866 -3.59862,-20.20428 -4.00088,-20.54583 -0.62656,-0.53199 -17.36008,-7.9361 -35.30254,-15.62037 l -5.20824,-2.23056 19.8897,-10.32365 19.8897,-10.32365 2.0315,-21.6009 c 1.1391,-12.11204 2.48539,-21.60088 3.06476,-21.60088 0.56829,0 7.6967,6.60665 15.84092,14.68145 8.14423,8.0748 15.47355,14.68145 16.2874,14.68145 0.81384,0 10.36674,-1.94919 21.22866,-4.33153 10.86192,-2.38235 19.99293,-4.08758 20.2911,-3.78939 0.29818,0.29818 -3.78455,9.21059 -9.07275,19.80535 l -9.6149,19.26319 11.10027,18.8703 c 6.10514,10.37868 10.69148,19.01137 10.19183,19.18376 -0.83844,0.2893 -33.86543,-4.34149 -40.00098,-5.60862 -2.40309,-0.49629 -4.26843,1.2166 -17.1406,15.73975 -7.94424,8.96316 -14.64999,16.29665 -14.90169,16.29665 -0.25168,0 -0.648,-0.58988 -0.88068,-1.31084 z"
     id="path13182"
     inkscape:connector-curvature="0" />
</svg>
