<?xml version="1.0" encoding="UTF-8" standalone="no"?>
<svg
   xmlns:dc="http://purl.org/dc/elements/1.1/"
   xmlns:cc="http://creativecommons.org/ns#"
   xmlns:rdf="http://www.w3.org/1999/02/22-rdf-syntax-ns#"
   xmlns:svg="http://www.w3.org/2000/svg"
   xmlns="http://www.w3.org/2000/svg"
   xmlns:sodipodi="http://sodipodi.sourceforge.net/DTD/sodipodi-0.dtd"
   xmlns:inkscape="http://www.inkscape.org/namespaces/inkscape"
   width="700pt"
   height="700pt"
   version="1.1"
   viewBox="0 0 700 700"
   id="svg3925"
   sodipodi:docname="bola-6.svg"
   inkscape:version="0.92.5 (2060ec1f9f, 2020-04-08)">
  <metadata
     id="metadata3929">
    <rdf:RDF>
      <cc:Work
         rdf:about="">
        <dc:format>image/svg+xml</dc:format>
        <dc:type
           rdf:resource="http://purl.org/dc/dcmitype/StillImage" />
        <dc:title></dc:title>
      </cc:Work>
    </rdf:RDF>
  </metadata>
  <sodipodi:namedview
     pagecolor="#ffffff"
     bordercolor="#666666"
     borderopacity="1"
     objecttolerance="10"
     gridtolerance="10"
     guidetolerance="10"
     inkscape:pageopacity="0"
     inkscape:pageshadow="2"
     inkscape:window-width="1920"
     inkscape:window-height="1031"
     id="namedview3927"
     showgrid="false"
     inkscape:zoom="0.715188"
     inkscape:cx="595.10134"
     inkscape:cy="500.99869"
     inkscape:window-x="0"
     inkscape:window-y="25"
     inkscape:window-maximized="1"
     inkscape:current-layer="svg3925" />
  <defs
     id="defs3835">
    <symbol
       id="v"
       overflow="visible">
      <path
         d="m18.766-1.125c-0.96875 0.5-1.9805 0.875-3.0312 1.125-1.043 0.25781-2.1367 0.39062-3.2812 0.39062-3.3984 0-6.0898-0.94531-8.0781-2.8438-1.9922-1.9062-2.9844-4.4844-2.9844-7.7344 0-3.2578 0.99219-5.8359 2.9844-7.7344 1.9883-1.9062 4.6797-2.8594 8.0781-2.8594 1.1445 0 2.2383 0.13281 3.2812 0.39062 1.0508 0.25 2.0625 0.625 3.0312 1.125v4.2188c-0.98047-0.65625-1.9453-1.1406-2.8906-1.4531-0.94922-0.3125-1.9492-0.46875-3-0.46875-1.875 0-3.3516 0.60547-4.4219 1.8125-1.0742 1.1992-1.6094 2.8555-1.6094 4.9688 0 2.1055 0.53516 3.7617 1.6094 4.9688 1.0703 1.1992 2.5469 1.7969 4.4219 1.7969 1.0508 0 2.0508-0.14844 3-0.45312 0.94531-0.3125 1.9102-0.80078 2.8906-1.4688z"
         id="path3769" />
    </symbol>
    <symbol
       id="d"
       overflow="visible">
      <path
         d="m13.734-11.141c-0.4375-0.19531-0.87109-0.34375-1.2969-0.4375-0.41797-0.10156-0.83984-0.15625-1.2656-0.15625-1.2617 0-2.2305 0.40625-2.9062 1.2188-0.67969 0.80469-1.0156 1.9531-1.0156 3.4531v7.0625h-4.8906v-15.312h4.8906v2.5156c0.625-1 1.3438-1.7266 2.1562-2.1875 0.82031-0.46875 1.8008-0.70312 2.9375-0.70312 0.16406 0 0.34375 0.011719 0.53125 0.03125 0.19531 0.011719 0.47656 0.039062 0.84375 0.078125z"
         id="path3772" />
    </symbol>
    <symbol
       id="a"
       overflow="visible">
      <path
         d="m17.641-7.7031v1.4062h-11.453c0.125 1.1484 0.53906 2.0078 1.25 2.5781 0.70703 0.57422 1.7031 0.85938 2.9844 0.85938 1.0312 0 2.082-0.14844 3.1562-0.45312 1.082-0.3125 2.1914-0.77344 3.3281-1.3906v3.7656c-1.1562 0.4375-2.3125 0.76562-3.4688 0.98438-1.1562 0.22656-2.3125 0.34375-3.4688 0.34375-2.7734 0-4.9297-0.70312-6.4688-2.1094-1.5312-1.4062-2.2969-3.3789-2.2969-5.9219 0-2.5 0.75391-4.4609 2.2656-5.8906 1.5078-1.4375 3.582-2.1562 6.2188-2.1562 2.4062 0 4.332 0.73047 5.7812 2.1875 1.4453 1.4492 2.1719 3.3828 2.1719 5.7969zm-5.0312-1.625c0-0.92578-0.27344-1.6719-0.8125-2.2344-0.54297-0.57031-1.25-0.85938-2.125-0.85938-0.94922 0-1.7188 0.26562-2.3125 0.79688s-0.96484 1.2969-1.1094 2.2969z"
         id="path3775" />
    </symbol>
    <symbol
       id="g"
       overflow="visible">
      <path
         d="m9.2188-6.8906c-1.0234 0-1.793 0.17188-2.3125 0.51562-0.51172 0.34375-0.76562 0.85547-0.76562 1.5312 0 0.625 0.20703 1.1172 0.625 1.4688 0.41406 0.34375 0.98828 0.51562 1.7188 0.51562 0.92578 0 1.7031-0.32812 2.3281-0.98438 0.63281-0.66406 0.95312-1.4922 0.95312-2.4844v-0.5625zm7.4688-1.8438v8.7344h-4.9219v-2.2656c-0.65625 0.92969-1.3984 1.6055-2.2188 2.0312-0.82422 0.41406-1.8242 0.625-3 0.625-1.5859 0-2.8711-0.45703-3.8594-1.375-0.99219-0.92578-1.4844-2.1289-1.4844-3.6094 0-1.7891 0.61328-3.1016 1.8438-3.9375 1.2383-0.84375 3.1797-1.2656 5.8281-1.2656h2.8906v-0.39062c0-0.76953-0.30859-1.332-0.92188-1.6875-0.61719-0.36328-1.5703-0.54688-2.8594-0.54688-1.0547 0-2.0312 0.10547-2.9375 0.3125-0.89844 0.21094-1.7305 0.52344-2.5 0.9375v-3.7344c1.0391-0.25 2.0859-0.44141 3.1406-0.57812 1.0625-0.13281 2.125-0.20312 3.1875-0.20312 2.7578 0 4.75 0.54688 5.9688 1.6406 1.2266 1.0859 1.8438 2.8555 1.8438 5.3125z"
         id="path3778" />
    </symbol>
    <symbol
       id="c"
       overflow="visible">
      <path
         d="m7.7031-19.656v4.3438h5.0469v3.5h-5.0469v6.5c0 0.71094 0.14062 1.1875 0.42188 1.4375s0.83594 0.375 1.6719 0.375h2.5156v3.5h-4.1875c-1.9375 0-3.3125-0.39844-4.125-1.2031-0.80469-0.8125-1.2031-2.1797-1.2031-4.1094v-6.5h-2.4219v-3.5h2.4219v-4.3438z"
         id="path3781" />
    </symbol>
    <symbol
       id="f"
       overflow="visible">
      <path
         d="m12.766-13.078v-8.2031h4.9219v21.281h-4.9219v-2.2188c-0.66797 0.90625-1.4062 1.5703-2.2188 1.9844s-1.7578 0.625-2.8281 0.625c-1.8867 0-3.4336-0.75-4.6406-2.25-1.2109-1.5-1.8125-3.4258-1.8125-5.7812 0-2.3633 0.60156-4.2969 1.8125-5.7969 1.207-1.5 2.7539-2.25 4.6406-2.25 1.0625 0 2 0.21484 2.8125 0.64062 0.82031 0.42969 1.5664 1.0859 2.2344 1.9688zm-3.2188 9.9219c1.0391 0 1.8359-0.37891 2.3906-1.1406 0.55078-0.76953 0.82812-1.8828 0.82812-3.3438 0-1.457-0.27734-2.5664-0.82812-3.3281-0.55469-0.76953-1.3516-1.1562-2.3906-1.1562-1.043 0-1.8398 0.38672-2.3906 1.1562-0.55469 0.76172-0.82812 1.8711-0.82812 3.3281 0 1.4609 0.27344 2.5742 0.82812 3.3438 0.55078 0.76172 1.3477 1.1406 2.3906 1.1406z"
         id="path3784" />
    </symbol>
    <symbol
       id="j"
       overflow="visible">
      <path
         d="m10.5-3.1562c1.0508 0 1.8516-0.37891 2.4062-1.1406 0.55078-0.76953 0.82812-1.8828 0.82812-3.3438 0-1.457-0.27734-2.5664-0.82812-3.3281-0.55469-0.76953-1.3555-1.1562-2.4062-1.1562-1.0547 0-1.8594 0.38672-2.4219 1.1562-0.55469 0.77344-0.82812 1.8828-0.82812 3.3281 0 1.4492 0.27344 2.5586 0.82812 3.3281 0.5625 0.77344 1.3672 1.1562 2.4219 1.1562zm-3.25-9.9219c0.67578-0.88281 1.4219-1.5391 2.2344-1.9688 0.82031-0.42578 1.7656-0.64062 2.8281-0.64062 1.8945 0 3.4453 0.75 4.6562 2.25 1.207 1.5 1.8125 3.4336 1.8125 5.7969 0 2.3555-0.60547 4.2812-1.8125 5.7812-1.2109 1.5-2.7617 2.25-4.6562 2.25-1.0625 0-2.0078-0.21094-2.8281-0.625-0.8125-0.42578-1.5586-1.0859-2.2344-1.9844v2.2188h-4.8906v-21.281h4.8906z"
         id="path3787" />
    </symbol>
    <symbol
       id="e"
       overflow="visible">
      <path
         d="m0.34375-15.312h4.8906l4.125 10.391 3.5-10.391h4.8906l-6.4375 16.766c-0.64844 1.6953-1.4023 2.8828-2.2656 3.5625-0.86719 0.6875-2 1.0312-3.4062 1.0312h-2.8438v-3.2188h1.5312c0.83203 0 1.4375-0.13672 1.8125-0.40625 0.38281-0.26172 0.67969-0.73047 0.89062-1.4062l0.14062-0.42188z"
         id="path3790" />
    </symbol>
    <symbol
       id="i"
       overflow="visible">
      <path
         d="m0.14062-20.406h18.812v3.9688h-6.7656v16.438h-5.2656v-16.438h-6.7812z"
         id="path3793" />
    </symbol>
    <symbol
       id="h"
       overflow="visible">
      <path
         d="m17.75-9.3281v9.3281h-4.9219v-7.1094c0-1.3438-0.03125-2.2656-0.09375-2.7656s-0.16797-0.86719-0.3125-1.1094c-0.1875-0.3125-0.44922-0.55469-0.78125-0.73438-0.32422-0.17578-0.69531-0.26562-1.1094-0.26562-1.0234 0-1.8242 0.39844-2.4062 1.1875-0.58594 0.78125-0.875 1.8711-0.875 3.2656v7.5312h-4.8906v-21.281h4.8906v8.2031c0.73828-0.88281 1.5195-1.5391 2.3438-1.9688 0.83203-0.42578 1.75-0.64062 2.75-0.64062 1.7695 0 3.1133 0.54688 4.0312 1.6406 0.91406 1.0859 1.375 2.6562 1.375 4.7188z"
         id="path3796" />
    </symbol>
    <symbol
       id="u"
       overflow="visible">
      <path
         d="m14.312-14.828v3.7188c-1.043-0.4375-2.0547-0.76562-3.0312-0.98438-0.98047-0.21875-1.9023-0.32812-2.7656-0.32812-0.92969 0-1.6211 0.11719-2.0781 0.34375-0.44922 0.23047-0.67188 0.58984-0.67188 1.0781 0 0.38672 0.17188 0.68359 0.51562 0.89062 0.34375 0.21094 0.95703 0.36719 1.8438 0.46875l0.85938 0.125c2.5078 0.32422 4.1953 0.85156 5.0625 1.5781 0.86328 0.73047 1.2969 1.8711 1.2969 3.4219 0 1.6367-0.60547 2.8672-1.8125 3.6875-1.1992 0.8125-2.9922 1.2188-5.375 1.2188-1.0234 0-2.0742-0.078125-3.1562-0.23438-1.0742-0.15625-2.1797-0.39453-3.3125-0.71875v-3.7188c0.96875 0.48047 1.9609 0.83984 2.9844 1.0781 1.0312 0.23047 2.0781 0.34375 3.1406 0.34375 0.95703 0 1.6758-0.12891 2.1562-0.39062 0.47656-0.26953 0.71875-0.66406 0.71875-1.1875 0-0.4375-0.16797-0.75781-0.5-0.96875-0.33594-0.21875-0.99609-0.38281-1.9844-0.5l-0.85938-0.10938c-2.1797-0.26953-3.7031-0.77344-4.5781-1.5156-0.875-0.73828-1.3125-1.8594-1.3125-3.3594 0-1.625 0.55078-2.8281 1.6562-3.6094 1.1133-0.78906 2.8203-1.1875 5.125-1.1875 0.89453 0 1.8359 0.074219 2.8281 0.21875 1 0.13672 2.082 0.35156 3.25 0.64062z"
         id="path3799" />
    </symbol>
    <symbol
       id="t"
       overflow="visible">
      <path
         d="m16.781-19.766v4.3125c-1.125-0.5-2.2266-0.875-3.2969-1.125-1.0625-0.25781-2.0703-0.39062-3.0156-0.39062-1.25 0-2.1797 0.17969-2.7812 0.53125-0.60547 0.34375-0.90625 0.88281-0.90625 1.6094 0 0.54297 0.20312 0.96875 0.60938 1.2812 0.40625 0.30469 1.1406 0.5625 2.2031 0.78125l2.25 0.45312c2.2695 0.44922 3.8789 1.1406 4.8281 2.0781 0.95703 0.92969 1.4375 2.2461 1.4375 3.9531 0 2.25-0.66797 3.9297-2 5.0312-1.3359 1.0938-3.3711 1.6406-6.1094 1.6406-1.3047 0-2.6055-0.125-3.9062-0.375-1.3047-0.23828-2.6055-0.59766-3.9062-1.0781v-4.4531c1.3008 0.69922 2.5625 1.2266 3.7812 1.5781 1.2188 0.34375 2.3906 0.51562 3.5156 0.51562 1.1562 0 2.0352-0.1875 2.6406-0.5625 0.61328-0.38281 0.92188-0.9375 0.92188-1.6562 0-0.63281-0.21094-1.125-0.625-1.4688-0.41797-0.34375-1.2461-0.65625-2.4844-0.9375l-2.0312-0.4375c-2.043-0.4375-3.5391-1.1328-4.4844-2.0938-0.9375-0.95703-1.4062-2.25-1.4062-3.875 0-2.0312 0.65625-3.5938 1.9688-4.6875s3.1953-1.6406 5.6562-1.6406c1.125 0 2.2734 0.085938 3.4531 0.25 1.1875 0.16797 2.4141 0.42188 3.6875 0.76562z"
         id="path3802" />
    </symbol>
    <symbol
       id="b"
       overflow="visible">
      <path
         d="m9.6406-12.188c-1.0859 0-1.9141 0.39062-2.4844 1.1719-0.57422 0.78125-0.85938 1.9062-0.85938 3.375s0.28516 2.5938 0.85938 3.375c0.57031 0.77344 1.3984 1.1562 2.4844 1.1562 1.0625 0 1.875-0.38281 2.4375-1.1562 0.57031-0.78125 0.85938-1.9062 0.85938-3.375s-0.28906-2.5938-0.85938-3.375c-0.5625-0.78125-1.375-1.1719-2.4375-1.1719zm0-3.5c2.6328 0 4.6914 0.71484 6.1719 2.1406 1.4766 1.418 2.2188 3.3867 2.2188 5.9062 0 2.5117-0.74219 4.4805-2.2188 5.9062-1.4805 1.418-3.5391 2.125-6.1719 2.125-2.6484 0-4.7148-0.70703-6.2031-2.125-1.4922-1.4258-2.2344-3.3945-2.2344-5.9062 0-2.5195 0.74219-4.4883 2.2344-5.9062 1.4883-1.4258 3.5547-2.1406 6.2031-2.1406z"
         id="path3805" />
    </symbol>
    <symbol
       id="s"
       overflow="visible">
      <path
         d="m2.3594-21.281h4.8906v21.281h-4.8906z"
         id="path3808" />
    </symbol>
    <symbol
       id="r"
       overflow="visible">
      <path
         d="m12.422-21.281v3.2188h-2.7031c-0.6875 0-1.1719 0.125-1.4531 0.375-0.27344 0.25-0.40625 0.6875-0.40625 1.3125v1.0625h4.1875v3.5h-4.1875v11.812h-4.8906v-11.812h-2.4375v-3.5h2.4375v-1.0625c0-1.6641 0.46094-2.8984 1.3906-3.7031 0.92578-0.80078 2.3672-1.2031 4.3281-1.2031z"
         id="path3811" />
    </symbol>
    <symbol
       id="q"
       overflow="visible">
      <path
         d="m16.547-12.766c0.61328-0.94531 1.3477-1.6719 2.2031-2.1719 0.85156-0.5 1.7891-0.75 2.8125-0.75 1.7578 0 3.0977 0.54688 4.0156 1.6406 0.92578 1.0859 1.3906 2.6562 1.3906 4.7188v9.3281h-4.9219v-7.9844-0.35938c0.007813-0.13281 0.015625-0.32031 0.015625-0.5625 0-1.082-0.16406-1.8633-0.48438-2.3438-0.3125-0.48828-0.82422-0.73438-1.5312-0.73438-0.92969 0-1.6484 0.38672-2.1562 1.1562-0.51172 0.76172-0.77344 1.8672-0.78125 3.3125v7.5156h-4.9219v-7.9844c0-1.6953-0.14844-2.7852-0.4375-3.2656-0.29297-0.48828-0.8125-0.73438-1.5625-0.73438-0.9375 0-1.6641 0.38672-2.1719 1.1562-0.51172 0.76172-0.76562 1.8594-0.76562 3.2969v7.5312h-4.9219v-15.312h4.9219v2.2344c0.60156-0.86328 1.2891-1.5156 2.0625-1.9531 0.78125-0.4375 1.6406-0.65625 2.5781-0.65625 1.0625 0 2 0.25781 2.8125 0.76562 0.8125 0.51172 1.4258 1.2305 1.8438 2.1562z"
         id="path3814" />
    </symbol>
    <symbol
       id="p"
       overflow="visible">
      <path
         d="m2.5781-20.406h5.875l7.4219 14v-14h4.9844v20.406h-5.875l-7.4219-14v14h-4.9844z"
         id="path3817" />
    </symbol>
    <symbol
       id="o"
       overflow="visible">
      <path
         d="m2.1875-5.9688v-9.3438h4.9219v1.5312c0 0.83594-0.007813 1.875-0.015625 3.125-0.011719 1.25-0.015625 2.0859-0.015625 2.5 0 1.2422 0.03125 2.1328 0.09375 2.6719 0.070313 0.54297 0.17969 0.93359 0.32812 1.1719 0.20703 0.32422 0.47266 0.57422 0.79688 0.75 0.32031 0.16797 0.69141 0.25 1.1094 0.25 1.0195 0 1.8203-0.39062 2.4062-1.1719 0.58203-0.78125 0.875-1.8672 0.875-3.2656v-7.5625h4.8906v15.312h-4.8906v-2.2188c-0.74219 0.89844-1.5234 1.5586-2.3438 1.9844-0.82422 0.41406-1.7344 0.625-2.7344 0.625-1.7617 0-3.1055-0.53906-4.0312-1.625-0.92969-1.082-1.3906-2.6602-1.3906-4.7344z"
         id="path3820" />
    </symbol>
    <symbol
       id="n"
       overflow="visible">
      <path
         d="m17.75-9.3281v9.3281h-4.9219v-7.1406c0-1.3203-0.03125-2.2344-0.09375-2.7344s-0.16797-0.86719-0.3125-1.1094c-0.1875-0.3125-0.44922-0.55469-0.78125-0.73438-0.32422-0.17578-0.69531-0.26562-1.1094-0.26562-1.0234 0-1.8242 0.39844-2.4062 1.1875-0.58594 0.78125-0.875 1.8711-0.875 3.2656v7.5312h-4.8906v-15.312h4.8906v2.2344c0.73828-0.88281 1.5195-1.5391 2.3438-1.9688 0.83203-0.42578 1.75-0.64062 2.75-0.64062 1.7695 0 3.1133 0.54688 4.0312 1.6406 0.91406 1.0859 1.375 2.6562 1.375 4.7188z"
         id="path3823" />
    </symbol>
    <symbol
       id="m"
       overflow="visible">
      <path
         d="m2.5781-20.406h8.7344c2.5938 0 4.582 0.57812 5.9688 1.7344 1.3945 1.1484 2.0938 2.7891 2.0938 4.9219 0 2.1367-0.69922 3.7812-2.0938 4.9375-1.3867 1.1562-3.375 1.7344-5.9688 1.7344h-3.4844v7.0781h-5.25zm5.25 3.8125v5.7031h2.9219c1.0195 0 1.8047-0.25 2.3594-0.75 0.5625-0.5 0.84375-1.2031 0.84375-2.1094 0-0.91406-0.28125-1.6172-0.84375-2.1094-0.55469-0.48828-1.3398-0.73438-2.3594-0.73438z"
         id="path3826" />
    </symbol>
    <symbol
       id="l"
       overflow="visible">
      <path
         d="m2.3594-15.312h4.8906v15.031c0 2.0508-0.49609 3.6172-1.4844 4.7031-0.98047 1.082-2.4062 1.625-4.2812 1.625h-2.4219v-3.2188h0.85938c0.92578 0 1.5625-0.21094 1.9062-0.625 0.35156-0.41797 0.53125-1.2461 0.53125-2.4844zm0-5.9688h4.8906v4h-4.8906z"
         id="path3829" />
    </symbol>
    <symbol
       id="k"
       overflow="visible">
      <path
         d="m14.719-14.828v3.9844c-0.65625-0.45703-1.3242-0.79688-2-1.0156-0.66797-0.21875-1.3594-0.32812-2.0781-0.32812-1.3672 0-2.4336 0.40234-3.2031 1.2031-0.76172 0.79297-1.1406 1.9062-1.1406 3.3438 0 1.4297 0.37891 2.543 1.1406 3.3438 0.76953 0.79297 1.8359 1.1875 3.2031 1.1875 0.75781 0 1.4844-0.10938 2.1719-0.32812 0.6875-0.22656 1.3203-0.56641 1.9062-1.0156v4c-0.76172 0.28125-1.5391 0.48828-2.3281 0.625-0.78125 0.14453-1.5742 0.21875-2.375 0.21875-2.7617 0-4.9219-0.70703-6.4844-2.125-1.5547-1.4141-2.3281-3.3828-2.3281-5.9062 0-2.5312 0.77344-4.5039 2.3281-5.9219 1.5625-1.4141 3.7227-2.125 6.4844-2.125 0.80078 0 1.5938 0.074219 2.375 0.21875 0.78125 0.13672 1.5547 0.35156 2.3281 0.64062z"
         id="path3832" />
    </symbol>
  </defs>
  <ellipse
     style="fill:#ff6600;fill-opacity:1;stroke-width:0"
     id="path12563"
     cx="351.30624"
     cy="280.52988"
     rx="264.2662"
     ry="262.16882" />
  <path
     inkscape:connector-curvature="0"
     id="path3837"
     d="m 350.001,559.999 c -154.39,0 -280,-125.61 -280,-280 0,-154.39 125.61,-280 280,-280 154.39,0 280,125.61 280,280 0,154.39 -125.61,280 -280,280 z m 0,-533.64 c -139.86,0 -253.64,113.79 -253.64,253.64 0,139.85 113.79,253.64 253.64,253.64 139.85,0 253.64,-113.79 253.64,-253.64 0,-139.85 -113.79,-253.64 -253.64,-253.64 z M 168.47,163.719 c 5.2305,-18.801 16.559,-35.98 30.285,-50.02 6.8867,-7.0859 14.594,-13.301 22.562,-19.051 7.9922,-5.7188 16.238,-11.066 24.949,-15.539 17.289,-9.1562 35.707,-15.898 54.562,-20.109 18.84,-4.2109 38.148,-5.9258 57.148,-4.7305 4.082,0.25781 7.1797,3.7734 6.9219,7.8516 -0.21094,3.457 -2.7656,6.2031 -6.0156,6.8164 l -0.0664,0.01172 c -17.656,3.3047 -34.781,7.7266 -51.238,13.629 -16.441,5.9062 -32.188,13.266 -46.906,22.121 -7.2969,4.5312 -14.488,9.168 -21.246,14.379 -6.7891,5.1758 -13.125,10.848 -19.414,16.547 -12.641,11.508 -24.18,23.527 -37.094,36.664 -3.3477,3.4062 -8.8203,3.457 -12.23,0.10547 -2.3242,-2.2773 -3.0859,-5.5508 -2.2773,-8.4766 z m -27.207,80.148 c -1.4688,-2.2383 -2.1094,-4.3633 -2.6602,-6.4688 -0.38672,-2.1992 -0.44141,-4.4141 -0.26953,-6.5703 0.51562,-4.1992 1.7031,-8.2617 2.9453,-12.285 1.3047,-4.0078 2.9844,-7.9062 4.9062,-11.68 1.9766,-3.7578 4.2734,-7.3789 7.1523,-10.691 2.3398,-2.6875 6.6875,-2.9688 9.375,-0.63281 1.4297,1.2422 2.4883,2.9688 2.4883,4.7148 v 0.21094 c 0,4.1836 -0.51562,8.125 -0.97266,11.988 -0.44922,3.8633 -1.0859,7.668 -1.7695,11.406 -0.68359,3.7422 -1.3047,7.5 -2.3477,11.145 -0.51953,1.7812 -1.3281,3.5039 -2.4062,5.2461 -1.1367,1.8555 -2.3984,3.6914 -4.4531,5.4023 -3.4453,2.8672 -8.5586,2.3984 -11.426,-1.043 -0.19922,-0.23438 -0.39453,-0.48438 -0.5625,-0.74219 z m 436.22,60.988 c 2.5586,16.09 -0.0352,32.727 -5.168,48.027 -2.582,7.6992 -6.0312,15.055 -9.7344,22.238 -3.7422,7.1641 -7.6875,14.219 -12.27,20.848 -8.9805,13.371 -19.453,25.641 -31.121,36.512 -11.66,10.852 -24.516,20.332 -38.387,27.805 -3.6172,1.9492 -8.1133,0.58984 -10.062,-3.0195 -1.5742,-2.9297 -0.98438,-6.457 1.2422,-8.7305 l 0.0547,-0.0547 c 10.426,-10.602 20.238,-21.391 29.211,-32.711 8.9609,-11.316 17.074,-23.121 24.188,-35.402 3.4492,-6.2031 6.9258,-12.371 9.9219,-18.766 3.0312,-6.3906 5.6328,-12.93 8.3555,-19.414 5.4727,-13.059 10.473,-25.934 17.152,-39.844 2.1094,-4.375 7.3516,-6.2148 11.73,-4.1094 2.6836,1.2812 4.4062,3.7578 4.8594,6.4805 z"
     sodipodi:nodetypes="ssssssssssccccccccccccccccccccccccssccccccccccccccccccccccccc" />
  <path
     style="fill:#aa0000;stroke-width:0;fill-opacity:1"
     d="m 341.2223,302.69162 c -2.52563,-15.58034 -4.87289,-29.31489 -5.21614,-30.52122 -0.36814,-1.29379 -12.35214,-7.28943 -29.22013,-14.61897 -15.72781,-6.8341 -28.46303,-12.52251 -28.30049,-12.64091 0.16254,-0.11841 12.56503,-6.65462 27.56109,-14.52491 14.99606,-7.87029 27.36291,-14.40819 27.48191,-14.52866 0.27231,-0.2757 6.0757,-58.81483 6.0757,-61.286 0,-1.00143 10.04152,8.20603 22.3145,20.46103 l 22.3145,22.2818 27.67236,-5.96309 c 15.21979,-3.27971 29.13053,-6.31421 30.91276,-6.74334 2.88253,-0.69406 1.69386,2.3099 -10.7626,27.1991 l -14.00299,27.97933 15.8743,27.07661 c 8.73087,14.89213 15.77625,27.16203 15.6564,27.26643 -0.11984,0.1044 -14.0604,-1.88041 -30.97902,-4.4107 -16.91863,-2.53028 -31.15803,-4.18871 -31.6431,-3.6854 -0.48508,0.50331 -9.5132,10.66779 -20.0625,22.58773 -10.5493,11.91995 -19.60894,21.83608 -20.13253,22.03585 -0.52359,0.19976 -3.0184,-12.38434 -5.54402,-27.96468 z"
     id="path12008"
     inkscape:connector-curvature="0"
     transform="scale(0.75000002)" />
  <path
     style="fill:#aa0000;fill-opacity:1;stroke-width:0"
     d="m 540.25078,298.09484 c 0,-2.20371 -9.96709,-59.94347 -10.49492,-60.79753 -0.32541,-0.52652 -12.7262,-6.19612 -27.5573,-12.5991 -14.83111,-6.40298 -27.43352,-12.03218 -28.00537,-12.50935 -0.57184,-0.47716 10.97563,-7.13219 25.66106,-14.78894 16.55161,-8.62976 27.14855,-14.98434 27.87879,-16.71785 0.64791,-1.53806 2.2045,-14.75137 3.45909,-29.36291 1.25459,-14.61155 2.54706,-27.40296 2.87216,-28.42538 0.35702,-1.12281 9.19863,6.35191 22.32798,18.87616 11.9553,11.4043 22.80964,20.89444 24.12077,21.0892 1.31113,0.19476 14.96041,-2.4345 30.33173,-5.8428 15.37131,-3.40829 28.11543,-6.02933 28.32023,-5.82452 0.20481,0.20481 -5.61191,12.7673 -12.92603,27.91665 -12.678,26.25924 -13.20657,27.72125 -11.32986,31.33774 1.08269,2.08641 8.03777,14.09324 15.45571,26.68185 7.41795,12.58861 13.3002,23.0606 13.07166,23.27109 -0.22853,0.21049 -14.09777,-1.64681 -30.82052,-4.12734 l -30.405,-4.51004 -20.98009,23.61373 c -11.53905,12.98754 -20.98009,23.21126 -20.98009,22.71934 z"
     id="path12553"
     inkscape:connector-curvature="0"
     transform="scale(0.75000002)" />
  <path
     style="fill:#aa0000;fill-opacity:1;stroke-width:0"
     d="m 612.3414,460.91219 c -0.39007,-1.08988 -2.61746,-13.6219 -4.94975,-27.84893 -2.3323,-14.22703 -4.54123,-27.19792 -4.90873,-28.8242 -0.52654,-2.33007 -6.67466,-5.55589 -29.00325,-15.21755 -15.58429,-6.74338 -28.45671,-12.35082 -28.60539,-12.46098 -0.14867,-0.11017 12.27813,-6.76063 27.61512,-14.77881 15.33699,-8.01818 27.88543,-15.26458 27.88543,-16.1031 0,-0.83852 1.25841,-13.73947 2.79647,-28.66876 1.53806,-14.9293 2.79647,-28.42252 2.79647,-29.98495 0,-2.04339 6.26448,3.41454 22.31821,19.44475 l 22.31822,22.28552 27.66864,-6.00502 c 15.21775,-3.30276 29.127,-6.33897 30.90944,-6.74714 2.89816,-0.66367 1.82637,2.08374 -10.1372,25.9857 -7.35789,14.7003 -13.35625,27.83523 -13.32967,29.18871 0.0266,1.35349 6.90699,14.08962 15.28977,28.3025 8.38279,14.21289 15.12501,25.92751 14.98269,26.03249 -0.14231,0.10498 -14.10127,-1.89471 -31.0199,-4.44376 -16.91862,-2.54904 -31.15455,-4.19638 -31.63538,-3.66074 -0.48083,0.53563 -9.2109,10.41196 -19.40015,21.94739 -10.18925,11.53543 -19.05599,21.55063 -19.70387,22.25599 -0.69514,0.75683 -1.46865,0.47027 -1.88717,-0.69911 z"
     id="path12555"
     inkscape:connector-curvature="0"
     transform="scale(0.75000002)" />
  <path
     style="fill:#aa0000;fill-opacity:1;stroke-width:0"
     d="m 433.55411,481.65188 c -0.40373,-1.73031 -2.76107,-15.50369 -5.23851,-30.60749 l -4.50446,-27.46147 -28.48859,-12.30037 c -15.66872,-6.7652 -28.00862,-12.73333 -27.42199,-13.26252 0.58662,-0.52918 12.82878,-7.08449 27.2048,-14.56735 22.47497,-11.69846 26.23831,-14.12342 26.85242,-17.30272 0.39281,-2.03363 1.77881,-15.3378 3.08,-29.56483 1.30119,-14.22703 2.8425,-26.40476 3.42513,-27.06162 0.58264,-0.65685 10.85642,8.38061 22.83062,20.08325 l 21.77128,21.27754 29.51954,-6.56224 c 16.23576,-3.60924 29.81313,-6.26868 30.17193,-5.90988 0.3588,0.3588 -5.46978,12.9158 -12.95242,27.90444 l -13.60477,27.25207 15.51547,26.3889 c 10.57602,17.9878 14.90074,26.52949 13.58452,26.83052 -1.66352,0.38047 -44.7245,-5.5108 -55.40226,-7.57971 -3.36113,-0.65124 -5.74291,1.54288 -24.35247,22.43383 -11.34483,12.73562 -20.76854,23.15568 -20.94157,23.15568 -0.17303,0 -0.64493,-1.41572 -1.04867,-3.14603 z"
     id="path12557"
     inkscape:connector-curvature="0"
     transform="scale(0.75000002)" />
  <path
     style="fill:#aa0000;fill-opacity:1;stroke-width:0"
     d="m 261.63351,527.21796 c -2.81438,-16.65847 -5.61306,-30.70666 -6.21929,-31.2182 -0.60623,-0.51155 -13.21444,-6.15916 -28.01824,-12.55025 -14.8038,-6.39109 -26.90964,-12.00556 -26.90188,-12.47661 0.008,-0.47105 12.00858,-7.05937 26.66846,-14.64071 14.65988,-7.58135 26.89817,-14.50261 27.19619,-15.38057 0.29803,-0.87797 1.50881,-11.9782 2.69063,-24.66717 1.18182,-12.68897 2.53505,-26.13891 3.00716,-29.88876 l 0.8584,-6.81791 19.76938,19.46433 c 10.87315,10.70537 21.0713,20.53193 22.66254,21.83679 2.74776,2.25323 4.32683,2.05685 31.41863,-3.90745 15.689,-3.45396 29.33371,-6.27993 30.32154,-6.27993 1.05637,0 -3.93091,11.4431 -12.10933,27.78435 l -13.90541,27.78436 15.35696,26.2207 c 8.44634,14.42139 15.05496,26.52271 14.68584,26.89183 -0.54815,0.54815 -39.57228,-4.65636 -56.17272,-7.49157 -4.06679,-0.69457 -5.36371,0.47389 -24.91383,22.44608 -11.34304,12.74833 -20.77092,23.17879 -20.95085,23.17879 -0.17992,0 -2.62981,-13.62965 -5.44418,-30.2881 z"
     id="path12559"
     inkscape:connector-curvature="0"
     transform="scale(0.75000002)" />
  <path
     style="fill:#aa0000;fill-opacity:1;stroke-width:0"
     d="m 481.0535,648.88156 c -0.41209,-1.42321 -2.81205,-15.31318 -5.33324,-30.86658 L 471.13627,589.73605 442.7956,577.4662 c -15.58736,-6.74842 -28.34054,-12.58446 -28.34039,-12.96897 1.5e-4,-0.38451 12.25192,-6.99117 27.22615,-14.68145 14.97423,-7.69029 27.27434,-14.61155 27.33357,-15.38058 0.0592,-0.76902 1.50963,-14.92614 3.22311,-31.46025 l 3.11541,-30.06203 22.38779,22.00872 22.38778,22.00872 28.41756,-6.27859 c 15.62966,-3.45323 29.2371,-6.27859 30.23875,-6.27859 1.10883,0 -3.33684,10.70061 -11.36551,27.35649 -7.25268,15.04608 -13.17535,27.78748 -13.16148,28.31424 0.014,0.52675 6.86781,12.59803 15.23096,26.82506 8.36316,14.22703 14.99405,26.09392 14.73529,26.37087 -0.25874,0.27695 -14.09994,-1.52719 -30.75819,-4.0092 -29.53075,-4.39996 -30.34865,-4.44749 -32.72473,-1.90178 -1.34035,1.43603 -10.17354,11.41984 -19.62933,22.18624 -9.45578,10.7664 -17.66872,20.11052 -18.25096,20.76469 -0.58224,0.6542 -1.39579,0.025 -1.80788,-1.39823 z"
     id="path12561"
     inkscape:connector-curvature="0"
     transform="scale(0.75000002)" />
</svg>
